<?xml version="1.0" standalone="no"?>
<!DOCTYPE svg PUBLIC "-//W3C//DTD SVG 1.1//EN" "http://www.w3.org/Graphics/SVG/1.1/DTD/svg11.dtd" >
<svg xmlns="http://www.w3.org/2000/svg">
<metadata></metadata>
<defs>
<font id="Puritan2.0Bold" horiz-adv-x="1024" >
<font-face units-per-em="2048" ascent="1638" descent="-410" />
<missing-glyph horiz-adv-x="559" />
<glyph horiz-adv-x="0" />
<glyph horiz-adv-x="2048" />
<glyph unicode=" "  horiz-adv-x="559" />
<glyph unicode="&#x09;" horiz-adv-x="559" />
<glyph unicode="&#xa0;" horiz-adv-x="559" />
<glyph unicode="!" horiz-adv-x="481" d="M76 90q0 66 45 113t110 47q68 0 115 -47t47 -113q0 -68 -47 -113q-46 -45 -115 -45q-65 0 -110 46q-45 47 -45 112zM115 352v1053h256v-1053h-256z" />
<glyph unicode="&#x22;" horiz-adv-x="673" d="M100 1321l45 -451h68l80 451h-193zM389 1321l45 -451h70l80 451h-195z" />
<glyph unicode="#" horiz-adv-x="1097" d="M141 776v170l189 21v71l-187 -20v170l189 20v140l180 18l-2 -137l76 6v139l180 23l-2 -142l147 15v-170l-147 -17v-69l145 14v-170l-147 -16v-178l-180 -21l2 180l-74 -8l-2 -178l-180 -21l2 181zM510 987l74 6v72l-74 -8v-70z" />
<glyph unicode="$" horiz-adv-x="1097" d="M147 164l134 162q125 -154 260 -154q70 0 116 52q48 54 48 132q0 89 -136 142q-206 85 -245 112q-132 98 -131 293q1 117 69 207q66 84 170 121v182h240v-176q103 -28 235 -137l-127 -158q-124 111 -219 111q-57 0 -93 -42t-36 -118t131 -121q189 -63 242 -104 q131 -101 131 -310q0 -292 -264 -372v-191h-240v185q-183 35 -285 184z" />
<glyph unicode="%" horiz-adv-x="1097" d="M6 -94l752 1392l203 -77l-740 -1389zM45 1061q0 117 69 193q69 77 173 77t173 -77q68 -75 68 -193q0 -130 -67 -201q-67 -72 -174 -72t-174 72q-68 73 -68 201zM236 1055q0 -84 51 -84q49 0 49 84q0 90 -51 90q-49 0 -49 -90zM553 268q0 116 71 196q70 79 177 79 q105 0 174 -79q69 -80 69 -196q0 -137 -67 -208q-68 -72 -176 -72q-110 0 -176 69q-72 76 -72 211zM750 260q0 -86 51 -86q49 0 49 86q0 92 -51 92q-49 0 -49 -92z" />
<glyph unicode="&#x26;" horiz-adv-x="1136" d="M51 362q0 242 205 381q-68 113 -68 230q0 145 101 241q102 97 241 97q87 0 144 -27q71 -34 143 -121l-115 -127q-78 94 -206 94q-84 0 -84 -129q0 -57 39 -153q83 32 223 37l33 -164q-107 0 -162 -16q110 -157 207 -269q8 32 8 60q0 63 -19 147l181 33l8 -55 q10 -59 10 -103q0 -106 -37 -221q44 -40 191 -119l-131 -178q-67 24 -189 123q-40 -58 -123 -98q-89 -43 -180 -43q-202 0 -315 116q-105 105 -105 264zM266 381q0 -83 47 -150q55 -77 150 -77q83 0 172 92q-219 209 -291 352q-78 -60 -78 -217z" />
<glyph unicode="'" horiz-adv-x="397" d="M102 1323l60 -477h59l74 477h-193z" />
<glyph unicode="(" horiz-adv-x="651" d="M94 662q0 504 238 954l166 -92q-189 -500 -189 -862q0 -218 58 -445q25 -94 135 -422l-170 -88q-238 473 -238 955z" />
<glyph unicode=")" horiz-adv-x="647" d="M150 -205q113 336 135 418q57 220 57 440q0 379 -186 873l166 88q229 -436 229 -946q0 -503 -229 -961z" />
<glyph unicode="*" horiz-adv-x="563" d="M29 1090l123 75l-121 78l82 143l90 -79l-4 114l153 -4l-6 -106l84 78l82 -146l-117 -76l121 -77l-86 -144l-84 78l4 -111h-153l4 111l-86 -78z" />
<glyph unicode="+" horiz-adv-x="1019" d="M106 545v192h310v330h188v-330h309v-192h-309v-348h-188v348h-310z" />
<glyph unicode="," horiz-adv-x="520" d="M84 -193q37 81 53 191q5 66 10 176h215q0 -75 -49 -203q-45 -122 -94 -190z" />
<glyph unicode="-" horiz-adv-x="778" d="M102 547v190h574v-190h-574z" />
<glyph unicode="." horiz-adv-x="499" d="M74 158q0 73 53 126q52 52 125 52t125 -52q53 -53 53 -126q0 -74 -52 -125t-126 -51q-72 0 -125 51t-53 125z" />
<glyph unicode="/" horiz-adv-x="788" d="M-29 -305l635 1753l246 -49l-633 -1753z" />
<glyph unicode="0" d="M16 645q0 292 115 483q134 215 379 215q246 0 379 -213q119 -191 119 -485q0 -245 -117 -434q-146 -236 -381 -236q-251 0 -391 236q-103 176 -103 434zM256 645q0 -177 45 -295q63 -176 209 -176q150 0 217 172q47 123 47 299q0 500 -264 500q-164 0 -221 -182 q-33 -105 -33 -318z" />
<glyph unicode="1" d="M207 0v205h272v889h-254v211h475v-1100h248v-205h-741z" />
<glyph unicode="2" d="M139 1079q147 269 371 269q190 0 314 -117t124 -297q0 -136 -88 -275q-66 -106 -203 -235l-219 -197h545v-227h-811v203l369 401q164 179 164 328q0 92 -51 160q-49 65 -140 65q-119 0 -221 -180z" />
<glyph unicode="3" d="M111 141l104 156q153 -158 285 -158q116 0 176 76q51 63 51 160q0 91 -57 153q-64 70 -174 70h-127v176h127q86 0 146 62t60 151q0 72 -56 128t-132 56q-68 0 -113 -36q-31 -23 -92 -99l-127 117q152 199 330 199q144 0 262 -92q129 -102 129 -259q0 -109 -63 -182 q-40 -49 -135 -100q102 -50 172 -144q75 -100 75 -219q0 -134 -106 -256q-121 -139 -303 -139q-281 0 -432 180z" />
<glyph unicode="4" d="M33 289v155l581 889h193v-862h178v-182h-178v-289h-223v289h-551zM281 471h303v479z" />
<glyph unicode="5" d="M51 131l99 152q128 -158 309 -158q116 0 198 106q72 95 72 193q0 238 -233 238q-42 0 -111 -42q-70 -42 -109 -100l-167 41v758h757v-227h-594v-381q38 56 107 100q85 53 168 53q172 0 289 -119q122 -126 122 -329q0 -181 -127 -314q-145 -151 -387 -151q-282 0 -393 180 z" />
<glyph unicode="6" d="M33 553q0 344 119 547q141 243 442 243q142 0 332 -92l-82 -170q-100 74 -252 74q-161 0 -246 -149q-72 -121 -84 -320q47 92 168 143q87 35 154 35q175 0 286 -104q125 -117 125 -324q0 -199 -125 -336q-130 -145 -335 -145q-217 0 -347 133q-155 156 -155 465zM281 395 q0 -113 63 -190q69 -86 191 -86q96 0 168 92q73 93 73 197q0 125 -61 192q-62 68 -166 68q-112 0 -187 -70q-81 -75 -81 -203z" />
<glyph unicode="7" d="M74 1096v223h864v-207l-547 -1178l-225 62l555 1100h-647z" />
<glyph unicode="8" d="M74 362q0 219 278 359q-215 141 -215 291q0 170 127 260q106 76 264 76q146 0 246 -76q113 -86 113 -242q0 -161 -199 -297q279 -150 279 -366q0 -185 -109 -299q-119 -125 -342 -125q-190 0 -309 102q-133 112 -133 317zM285 367q0 -126 77 -193q62 -55 146 -55 q96 0 162 70q65 69 65 178q0 181 -221 270q-229 -117 -229 -270zM354 1018q24 -140 160 -197q184 72 184 193q0 74 -50 127t-120 53q-63 0 -112 -43q-55 -52 -62 -133z" />
<glyph unicode="9" d="M49 879q0 197 129 330q129 134 336 134q193 0 326 -139q157 -161 157 -461q0 -306 -94 -507q-135 -289 -432 -289q-245 0 -420 168l123 157q82 -75 153 -107q66 -30 160 -30q147 0 220 166q57 129 57 317q-145 -172 -295 -172q-167 0 -289 117q-131 125 -131 316z M270 885q0 -105 66 -189q69 -90 166 -90q113 0 182 75q70 76 70 189q0 118 -56 203q-65 98 -184 98q-109 0 -176 -80q-68 -82 -68 -206z" />
<glyph unicode=":" horiz-adv-x="499" d="M74 158q0 73 53 126q52 52 125 52t125 -52q53 -53 53 -126q0 -74 -52 -125t-126 -51q-72 0 -125 51t-53 125zM74 860q0 74 53 125t125 51q74 0 126 -51t52 -125q0 -73 -53 -126q-52 -52 -125 -52t-125 52q-53 53 -53 126z" />
<glyph unicode=";" horiz-adv-x="520" d="M84 -193q37 81 53 191q5 66 10 176h215q0 -75 -49 -203q-45 -122 -94 -190zM139 856q0 176 142 176q135 0 135 -176t-135 -176q-142 0 -142 176z" />
<glyph unicode="&#x3c;" horiz-adv-x="749" d="M0 592l483 491l252 -8l-411 -491l411 -490l-250 -8z" />
<glyph unicode="=" horiz-adv-x="903" d="M182 256v201h658v-201h-658zM182 520v201h658v-201h-658z" />
<glyph unicode="&#x3e;" horiz-adv-x="747" d="M-33 1075l252 8l483 -491l-483 -506l-248 8l412 490z" />
<glyph unicode="?" horiz-adv-x="1118" d="M129 1104q73 172 166 241q94 70 258 70q201 0 311 -106q101 -101 101 -267q0 -105 -50 -182q-37 -59 -133 -131q-110 -82 -155 -215q-11 -31 -11 -149h-200q-8 43 -4 100q1 26 3 60l1 24q0 106 45 172q39 55 166 158q96 78 96 163q0 78 -49 137q-50 60 -115 60 q-163 0 -237 -215zM375 123q0 61 45 106t110 45q68 0 115 -44t47 -107t-47 -107q-46 -43 -115 -43q-66 0 -110 43q-45 44 -45 107z" />
<glyph unicode="@" horiz-adv-x="2068" d="M68 487q0 391 287 666q289 277 696 277q405 0 650 -243t245 -636q0 -222 -178 -409q-176 -185 -398 -185q-122 0 -188 199q-140 -197 -314 -197q-358 0 -358 449q0 235 152 434q168 223 421 223q62 0 113 -33l86 -69l16 81h185q-17 -188 -51 -389l-68 -391l16 -98 q12 -35 93 -35q87 0 178 135q92 136 92 285q0 312 -193 519q-192 206 -499 206t-527 -244q-213 -236 -213 -545q0 -327 176 -559q186 -250 482 -250q213 0 348 60q127 57 295 219l123 -141q-207 -187 -312 -236q-158 -76 -454 -76q-417 0 -668 291q-233 273 -233 692z M762 434q0 -130 24 -190q39 -101 154 -101q62 0 151 90q88 89 103 175l70 385q-27 35 -86 67q-60 33 -101 33q-102 0 -192 -94q-123 -125 -123 -365z" />
<glyph unicode="A" horiz-adv-x="1163" d="M47 4l426 1335h209l430 -1325l-238 -39l-96 328h-424l-94 -328zM410 494h313l-154 532z" />
<glyph unicode="B" horiz-adv-x="1026" d="M129 4v1309q37 0 193 4q115 4 204 4q164 0 259 -87q96 -88 96 -247q0 -79 -52 -152t-133 -116q106 -7 188 -105q81 -96 81 -221q0 -235 -168 -330q-122 -67 -367 -67q-67 0 -159 4t-142 4zM371 166h137q112 0 168 65q55 59 55 164q0 87 -57 154q-66 74 -170 74h-133v-457 zM371 778h90q91 0 147 58q49 52 49 133q-1 200 -170 200q-51 0 -116 -4v-387z" />
<glyph unicode="C" horiz-adv-x="1140" d="M63 674q0 266 142 459q162 219 436 219q172 0 403 -142l-86 -159l-133 79q-75 35 -151 35q-164 0 -258 -184q-76 -146 -76 -330q0 -194 100 -327q94 -127 228 -127q71 0 137 24q48 18 158 80l96 -160q-133 -87 -213 -118q-99 -39 -215 -39q-279 0 -432 217 q-136 192 -136 473z" />
<glyph unicode="D" horiz-adv-x="1157" d="M129 4v1313q174 8 334 8q629 0 629 -667q0 -310 -158 -482q-163 -180 -479 -180q-61 0 -146 4t-180 4zM379 178h113q157 0 256 150q88 133 88 313q0 524 -357 524h-47q-40 -2 -53 -2v-985z" />
<glyph unicode="E" horiz-adv-x="946" d="M129 0v1311h735v-174h-497v-336h464v-183l-464 3v-439h491v-182h-729z" />
<glyph unicode="F" horiz-adv-x="948" d="M129 0v1311h737v-174h-499v-336h469v-183h-469v-618h-238z" />
<glyph unicode="G" horiz-adv-x="1191" d="M63 666q0 244 130 446q156 240 419 240q93 0 213 -35q139 -44 217 -109l-84 -155q-163 112 -301 112q-153 0 -245 -186q-76 -152 -76 -328q0 -192 84 -327q85 -136 207 -136q125 0 192 33v402h-268v178h512v-668q-128 -79 -213 -108q-99 -37 -232 -37q-264 0 -417 215 q-138 192 -138 463z" />
<glyph unicode="H" horiz-adv-x="1191" d="M129 0v1311h244v-510h448v510h242v-1311h-242v618h-448v-618h-244z" />
<glyph unicode="I" horiz-adv-x="501" d="M129 0v1313h244v-1313h-244z" />
<glyph unicode="J" horiz-adv-x="505" d="M-307 -227l125 153q49 -59 84 -82q45 -30 108 -30q121 0 121 309v1188h246v-1174q0 -520 -350 -520q-112 0 -189 41q-47 27 -145 115z" />
<glyph unicode="K" horiz-adv-x="1110" d="M129 0v1313h244v-594l411 659l215 -108l-426 -594q71 -119 250 -330l287 -330l-287 -63q-205 279 -381 569l-69 -100v-422h-244z" />
<glyph unicode="L" horiz-adv-x="1026" d="M129 0v1313h240v-1139h528v-174h-768z" />
<glyph unicode="M" horiz-adv-x="1624" d="M150 0v1315h311l356 -967l365 967h291v-1315h-269v874l-311 -876h-213l-313 885v-883h-217z" />
<glyph unicode="N" horiz-adv-x="1191" d="M129 0v1319h197l528 -830v822h209v-1280l-195 -62q-203 373 -526 852l-2 -821h-211z" />
<glyph unicode="O" horiz-adv-x="1318" d="M66 659q0 286 170 476q169 188 432 188q261 0 424 -188t163 -476q0 -324 -176 -514q-166 -178 -426 -178q-258 0 -417 178q-170 190 -170 514zM322 641q0 -199 94 -344t237 -145q147 0 248 149q98 143 98 338q0 205 -90 350q-95 154 -245 154t-250 -154 q-92 -146 -92 -348z" />
<glyph unicode="P" horiz-adv-x="972" d="M129 0v1313l385 6h6q165 0 279 -112q116 -113 116 -283q0 -158 -137 -278q-136 -120 -307 -120q-31 0 -104 4v-530h-238zM367 670h65q104 0 175 74q73 76 73 174q0 233 -223 251q-7 1 -15 1q-13 0 -30 -2q-30 -3 -45 -3v-495z" />
<glyph unicode="Q" horiz-adv-x="1347" d="M63 657q0 289 171 478q170 188 436 188q263 0 426 -185q164 -187 164 -474q0 -266 -154 -414l262 -238l-154 -172l-264 244q-162 -123 -295 -123q-259 0 -422 180q-170 191 -170 516zM322 643q0 -199 90 -344q96 -152 237 -152q88 0 160 60l-156 129l160 170l141 -127 q47 74 47 266q0 204 -88 344q-96 152 -247 152q-153 0 -252 -152q-92 -145 -92 -346z" />
<glyph unicode="R" horiz-adv-x="1069" d="M129 0v1313q72 0 211 4q150 2 184 2q187 0 285 -101q96 -98 96 -273v-7q-1 -140 -82 -246q-73 -93 -182 -127q162 -225 469 -532l-301 -56q-149 153 -397 562h-45v-539h-238zM367 682h84q225 0 225 258q0 84 -35 145q-47 84 -152 84h-12l-110 -4v-483z" />
<glyph unicode="S" horiz-adv-x="929" d="M49 168l111 158q123 -144 280 -144q107 0 160.5 52.5t52.5 156.5q0 107 -149 168q-246 103 -273 123q-145 101 -145 310q0 170 133 278q113 90 246 90q212 0 385 -146l-82 -172q-141 132 -264 132q-84 0 -123 -33q-49 -40 -49 -148q0 -94 143 -151q222 -90 268 -123 q146 -108 146 -324q0 -210 -137 -321q-118 -94 -295 -94q-275 0 -408 188z" />
<glyph unicode="T" horiz-adv-x="1097" d="M63 1143v166h969v-166h-352v-1143h-244v1143h-373z" />
<glyph unicode="U" horiz-adv-x="1251" d="M129 481v830h244v-830q0 -163 92 -258q76 -78 170 -78q90 0 162 80q82 94 82 256v830h243v-830q0 -256 -172 -397q-145 -119 -340 -119q-192 0 -325 121q-156 139 -156 395z" />
<glyph unicode="V" horiz-adv-x="1110" d="M16 1282l254 64l316 -963l297 965l211 -68l-451 -1300h-178z" />
<glyph unicode="W" horiz-adv-x="1615" d="M23 1274l272 53l229 -901l226 877h211l225 -875l213 901l205 -57l-361 -1284h-160l-249 823l-265 -823h-180z" />
<glyph unicode="X" horiz-adv-x="1130" d="M53 20l387 629l-364 623l237 84l269 -522l272 526l190 -90l-360 -596l436 -654l-256 -71l-301 551l-282 -561z" />
<glyph unicode="Y" horiz-adv-x="1030" d="M23 1272l251 67l265 -579l278 579l189 -67l-371 -717v-555h-242v555z" />
<glyph unicode="Z" horiz-adv-x="1114" d="M72 152l628 974l-561 -4v187h826l47 -172l-615 -934h582v-203h-854z" />
<glyph unicode="[" horiz-adv-x="460" d="M147 -233v1749h320v-179h-119v-1355h133v-215h-334z" />
<glyph unicode="\" horiz-adv-x="788" d="M12 1399l224 49l571 -1753l-223 -49z" />
<glyph unicode="]" horiz-adv-x="544" d="M102 -18h134v1355h-117v179h311v-1749h-328v215z" />
<glyph unicode="^" horiz-adv-x="1097" d="M215 1055l332 350l338 -350l-123 -148l-215 244l-209 -244z" />
<glyph unicode="_" horiz-adv-x="1097" d="M10 -102h1075v-121h-1075v121z" />
<glyph unicode="`" horiz-adv-x="673" d="M96 1305l439 -170l129 147l-441 182z" />
<glyph unicode="a" horiz-adv-x="1005" d="M84 279q0 170 98 241q61 42 250 80q112 21 174 27v106q0 45 -37 85t-86 40q-186 0 -303 -139l-88 125q55 91 182 151q114 54 209 54q145 0 245 -95q99 -94 99 -239v-514q0 -11 16 -29q15 -16 31 -16q67 0 87 20l22 -131q-125 -68 -201 -68q-31 0 -80 37q-53 42 -69 97 q-84 -75 -119 -99q-68 -45 -135 -45q-122 0 -205 80q-90 89 -90 232zM283 281q0 -60 36 -102q38 -44 87 -44q125 0 204 98l2 224q-58 0 -149 -17q-98 -16 -131 -39q-49 -30 -49 -120z" />
<glyph unicode="b" horiz-adv-x="1054" d="M131 -2v1436h221v-545q40 72 133 123q85 49 150 49q161 0 260 -156q84 -137 84 -321q0 -604 -401 -604q-72 0 -244 114l-17 -96h-186zM352 262q29 -36 95 -67q67 -31 114 -31q117 0 158 137q24 82 24 254q0 324 -182 324q-114 0 -209 -193v-424z" />
<glyph unicode="c" horiz-adv-x="980" d="M80 496q0 273 160 424q132 127 320 127h3q114 0 311 -132l-67 -141q-135 109 -262 109q-110 0 -172 -131q-54 -114 -54 -263q0 -156 67 -255q66 -97 173 -97q120 0 266 131l93 -121q-80 -91 -162 -132q-81 -40 -197 -40q-269 0 -393 211q-86 142 -86 310z" />
<glyph unicode="d" horiz-adv-x="1046" d="M76 508q0 212 90 375q99 178 244 178q101 0 159 -25q38 -19 127 -90v481h222v-1429h-189l-16 102l-125 -77q-86 -50 -133 -50q-185 0 -291 177q-88 146 -88 358zM317 530q0 -162 45 -262q50 -114 142 -114q62 0 192 106v440q-69 98 -88 117q-57 62 -123 62 q-168 0 -168 -349z" />
<glyph unicode="e" horiz-adv-x="1005" d="M80 506q0 231 123 381q130 157 354 157q153 0 258 -102q115 -113 115 -301v-154h-606q5 -347 239 -348h2l264 129l93 -125q-107 -102 -187 -137q-74 -31 -186 -31q-267 0 -391 222q-78 144 -78 309zM338 662h369q1 12 1 24q0 199 -165 199q-69 0 -123 -54 q-64 -63 -82 -169z" />
<glyph unicode="f" horiz-adv-x="663" d="M37 836v184h143v108q0 400 297 400q94 0 144 -29q7 -4 100 -86l-98 -137q-81 68 -144 70h-2q-42 0 -64 -50t-22 -151q0 -12 2 -70q0 -11 0.5 -24.5t1 -20.5t0.5 -10h254v-184h-254v-836h-215v836h-143z" />
<glyph unicode="g" horiz-adv-x="1046" d="M84 -240q0 112 182 228q-81 0 -131 49q-45 43 -45 102q0 41 72 109q96 94 100 100q-162 128 -162 307q0 152 113 265q112 112 279 112q191 0 286 -119l269 121v-231h-203q30 -101 30 -141q0 -165 -108 -273t-270 -108q-54 0 -115 18q-4 -7 -43 -49q-25 -28 -25 -37 q0 -64 95 -76q20 -2 147 -2q217 0 279 -24q127 -49 127 -234q0 -182 -209 -287q-158 -79 -326 -79q-155 0 -248 65q-94 66 -94 184zM303 -190q0 -77 31 -111q39 -41 143 -41q100 0 187 70q86 69 86 143q0 61 -45 82q-31 14 -123 14h-193q-20 -6 -53 -57t-33 -100zM324 655 q0 -78 43 -143q49 -76 129 -76q70 0 120 69q50 70 50 161q0 69 -50 137q-56 74 -129 74q-76 0 -122 -76q-41 -67 -41 -146z" />
<glyph unicode="h" horiz-adv-x="1048" d="M129 0v1425h219v-594q115 216 250 216q117 0 217 -95q105 -105 105 -258v-694h-220v668q0 192 -114 192q-90 0 -172 -96q-66 -78 -66 -111v-653h-219z" />
<glyph unicode="i" horiz-adv-x="477" d="M88 1346q0 64 45 108q44 43 107 43q60 0 104 -43q45 -44 45 -108q0 -66 -44 -110t-105 -44t-107 44q-45 44 -45 110zM129 0v1014h219v-1014h-219z" />
<glyph unicode="j" horiz-adv-x="477" d="M-61 -270q172 51 188 139q2 14 2 104v1041h221v-1127q0 -161 -106 -237q-73 -51 -228 -107zM94 1348q0 64 45 108q44 43 107 43q62 0 106 -43q45 -44 45 -108q0 -66 -45 -109q-44 -43 -106 -43q-63 0 -107 43q-45 43 -45 109z" />
<glyph unicode="k" horiz-adv-x="974" d="M129 -2v1429h219v-835l365 506l192 -133l-377 -402l445 -500l-197 -126l-366 518l-62 -90v-367h-219z" />
<glyph unicode="l" horiz-adv-x="479" d="M131 0v1430h217v-1430h-217z" />
<glyph unicode="m" horiz-adv-x="1589" d="M129 0v1016h219v-182q128 204 264 204q76 0 147 -59q73 -61 105 -135q153 205 289 205q138 0 227 -113q80 -101 80 -231v-705h-229v694q0 166 -111 166q-52 0 -125 -69q-88 -84 -88 -183v-608h-229v664q0 74 -38 132q-37 56 -83 56q-61 0 -135 -86t-74 -139v-627h-219z " />
<glyph unicode="n" horiz-adv-x="1048" d="M129 0v1016h219v-182q124 213 252 213q129 0 221 -101q99 -107 99 -266v-680h-220v655q0 105 -36 158q-30 49 -80 49q-76 0 -156 -87q-80 -88 -80 -154v-621h-219z" />
<glyph unicode="o" horiz-adv-x="1118" d="M80 516q0 263 166 410q136 123 319 123q181 0 314 -123q159 -146 159 -410q0 -179 -92 -330q-129 -209 -383 -209q-277 0 -401 211q-82 139 -82 328zM317 504q0 -148 60 -250q66 -117 178 -117q116 0 184 119q62 106 62 258q0 148 -56 254q-63 119 -172 119 q-125 0 -194 -121q-62 -107 -62 -262z" />
<glyph unicode="p" horiz-adv-x="1058" d="M129 -403v1419h219v-168q27 80 111 141q85 62 168 62q192 0 282 -164q74 -134 74 -352q0 -582 -426 -582q-63 0 -209 104v-460h-219zM348 233q127 -94 211 -94q95 0 146 127q40 101 40 242q0 165 -32 242q-43 112 -158 112q-49 0 -121 -88q-65 -76 -86 -139v-402z" />
<glyph unicode="q" horiz-adv-x="1046" d="M76 516q0 178 82 336q95 188 248 188q94 0 157 -30q38 -17 129 -88v94h219v-1419h-219v491q-105 -75 -127 -88q-80 -47 -131 -47q-172 0 -268 168q-90 153 -90 395zM311 498q0 -145 54 -256q53 -109 135 -109q28 0 90 57q27 24 52 47.5t36.5 33.5t13.5 12v415 q-18 56 -78 111q-59 55 -112 55q-191 -2 -191 -366z" />
<glyph unicode="r" horiz-adv-x="692" d="M129 0v1016h219v-166q27 64 74 121q55 65 102 65q80 0 127 -20l-24 -254q-29 18 -54 24q-10 1 -61 0q-59 -1 -115 -63q-49 -52 -49 -84v-639h-219z" />
<glyph unicode="s" horiz-adv-x="894" d="M94 135l115 154q108 -144 240 -144q65 0 105 37t40 94q0 102 -234 170q-118 33 -170 84q-69 68 -69 185q0 167 108 258q92 80 228 80h4q137 0 311 -111l-80 -151q-117 83 -217 83q-66 0 -101 -34q-36 -34 -36 -80q0 -56 45 -74q68 -27 139 -49q295 -88 295 -299 q0 -178 -117 -279q-104 -88 -260 -88q-221 0 -346 164z" />
<glyph unicode="t" horiz-adv-x="718" d="M43 840v168h143v215h232v-215h205v-170l-205 2v-547q0 -131 76 -131q59 0 81 8q3 0 70 39l49 -141q-112 -61 -141 -70q-48 -14 -162 -14q-205 0 -205 331v525h-143z" />
<glyph unicode="u" horiz-adv-x="1046" d="M129 340v674h219v-668q0 -192 107 -192q74 0 159 94q80 86 80 139v627h219v-1014h-198q-6 54 -21 145q-140 -182 -254 -182q-127 0 -217 100q-94 107 -94 277z" />
<glyph unicode="v" horiz-adv-x="950" d="M33 971l221 63l229 -786l219 786l216 -63l-361 -996h-156z" />
<glyph unicode="w" horiz-adv-x="1505" d="M45 973l225 57l191 -786l207 766h192l215 -764l178 784l220 -57l-318 -991h-174l-223 647l-228 -647h-178z" />
<glyph unicode="x" horiz-adv-x="999" d="M12 66l348 438l-311 426l205 123l256 -404l264 402l182 -105l-325 -432l356 -451l-190 -131l-299 443l-295 -438z" />
<glyph unicode="y" horiz-adv-x="983" d="M35 -352l65 194q77 -41 144 -41h2q51 0 94 65q44 67 80 200l-373 903l234 61l241 -749l221 745l207 -51l-407 -1135q-38 -97 -109 -162q-88 -79 -201 -79q-58 0 -198 49z" />
<glyph unicode="z" horiz-adv-x="987" d="M109 0v158l415 569q39 56 80 109h-477v176h747v-164l-385 -537q-32 -51 -86 -123h496v-188h-790z" />
<glyph unicode="{" horiz-adv-x="1097" d="M229 635l2 113q78 91 91 112q40 65 40 144q0 39 -5 139t-5 129q0 436 324 436q49 0 176 -31l-41 -229q-104 37 -131 37q-80 0 -98 -80q-7 -26 -7 -148q0 -21 6 -141q5 -100 5 -119q0 -153 -150 -303v-14q66 -60 113 -152q55 -111 55 -229q0 -53 -7 -161t-7 -158 q0 -113 6 -134q10 -30 49 -30q87 0 143 51l62 -244q-94 -32 -211 -26q-188 10 -250 186q-35 103 -35 342q0 37 4 109t4 128q0 155 -133 273z" />
<glyph unicode="|" horiz-adv-x="468" d="M133 -451v1856h262v-1856h-262z" />
<glyph unicode="}" horiz-adv-x="1097" d="M260 1677q127 31 176 31q324 0 324 -436q0 -29 -5 -129t-5 -139q0 -77 41 -144q15 -25 90 -112l2 -113q-133 -118 -133 -273q0 -47 3 -128t3 -109q0 -241 -35 -344q-60 -174 -248 -184q-119 -6 -211 26l60 244q57 -51 145 -51q35 0 44 17q10 19 11 67v80q0 50 -7 158 t-7 161q0 117 57 229q45 92 111 152v14q-150 150 -150 303q0 19 5 119q6 120 6 141q0 122 -7 148q-18 80 -98 80q-27 0 -131 -37z" />
<glyph unicode="~" horiz-adv-x="808" d="M166 928q90 90 194 90q69 0 134 -37t75 -37q24 -2 64 41l41 47l53 -178q-92 -78 -172 -78q-56 0 -127 49q-52 35 -72 35q-25 0 -51 -26q-15 -15 -80 -97z" />
<glyph unicode="&#xa1;" horiz-adv-x="481" d="M76 1329q0 66 46 112t111 46q68 0 114 -46t46 -112t-46 -112q-48 -48 -114 -48q-63 0 -111 48q-46 46 -46 112zM98 -211v1237h254v-1237h-254z" />
<glyph unicode="&#xa2;" horiz-adv-x="980" d="M78 496q0 231 104 374q92 125 244 164v174h242v-172q107 -24 227 -121l-100 -155q-106 84 -131 100q-56 33 -113 33q-103 0 -170 -127q-64 -120 -64 -277q0 -152 70 -252t158 -100q63 0 123 39q44 26 133 111l119 -146q-120 -123 -252 -161v-162h-242v159 q-200 45 -289 240q-59 127 -59 279z" />
<glyph unicode="&#xa3;" horiz-adv-x="974" d="M117 168q35 7 71 18q47 12 68 33q51 51 51 148q0 128 -18 233h-137v191h110q-20 106 -20 165q0 164 84 271q94 116 260 116q126 0 268 -83l-90 -166q-140 69 -168 69q-64 0 -107 -66q-43 -65 -43 -149q0 -24 25 -157h258v-191h-217q8 -94 8 -199q0 -95 -63 -168 q80 11 172 11q126 0 282 -43l-43 -226q-14 4 -149 52q-71 26 -119 26q-96 0 -453 -90z" />
<glyph unicode="&#xa4;" horiz-adv-x="1001" d="M74 463v160h186v94h-186v178h186v416h604v-215h-364v-201h331v-180h-331v-92h331v-160h-331v-240l358 2v-225h-598v463h-186z" />
<glyph unicode="&#xa5;" horiz-adv-x="1087" d="M43 1313h254l225 -461l226 461h253l-350 -725h156v-170h-162v-101h162v-170h-162v-143h-244v143h-168v170h168v101h-168v170h162z" />
<glyph unicode="&#xa6;" horiz-adv-x="372" d="M111 -37v606h157v-606h-157zM111 737v606h157v-606h-157z" />
<glyph unicode="&#xa7;" horiz-adv-x="802" d="M102 -47l101 162q95 -109 188 -109q35 0 59 26q23 24 23 46q0 34 -31 49q-2 2 -59 18q-26 5 -104 33q-136 51 -136 197q0 103 60 172q-60 55 -60 149q0 127 82 199q71 61 170 59q102 -2 238 -90l-70 -166q-121 82 -172 82q-56 0 -63 -28q-4 -11 -4 -43q0 -24 135 -54 q198 -63 198 -231q0 -105 -53 -172q53 -56 53 -150q2 -137 -86 -213q-76 -67 -190 -67q-150 0 -279 131zM324 387q0 -14 69 -35l41 -12q39 27 39 59q0 33 -31 50q-10 5 -69 22q-49 -7 -49 -84z" />
<glyph unicode="&#xa8;" horiz-adv-x="626" d="M-51 1286q0 52 35 96q40 52 108 52t109 -52q35 -44 35 -96q0 -54 -35 -98q-40 -49 -109 -49t-108 49q-35 41 -35 98zM379 1286q0 56 33 96q41 52 110 52q68 0 109 -52q35 -44 35 -96q0 -54 -35 -98q-40 -49 -109 -49t-108 49q-35 41 -35 98z" />
<glyph unicode="&#xa9;" horiz-adv-x="1630" d="M137 647q0 280 199 479t479 199t479 -199t199 -479t-199 -479t-479 -199t-479 199t-199 479zM270 647q0 -225 160 -385t385 -160t385 160t160 385t-160 385t-385 160t-385 -160t-160 -385zM444 651q0 172 91 295q103 138 280 139q125 0 248 -71l-49 -105q-122 74 -193 74 q-131 0 -203 -125q-55 -98 -55 -223q0 -139 72 -231q72 -91 176 -91q107 0 209 58l51 -86q-143 -76 -260 -76q-178 0 -279 137q-88 121 -88 305z" />
<glyph unicode="&#xaa;" horiz-adv-x="503" />
<glyph unicode="&#xab;" horiz-adv-x="798" d="M-2 592l317 332l220 -9l-267 -329l267 -328l-220 -8zM319 592l320 332l219 -9l-268 -329l268 -328l-219 -8z" />
<glyph unicode="&#xac;" horiz-adv-x="1255" d="M180 461v241h963v-645h-236v404h-727z" />
<glyph unicode="&#xad;" horiz-adv-x="778" d="M102 547v190h574v-190h-574z" />
<glyph unicode="&#xae;" horiz-adv-x="1630" d="M137 647q0 280 199 479t479 199t479 -199t199 -479t-199 -479t-479 -199t-479 199t-199 479zM270 647q0 -225 160 -385t385 -160t385 160t160 385t-160 385t-385 160q-224 0 -384 -160q-159 -159 -159 -385h-2zM545 233v840q176 4 264 4q229 -1 227 -231 q-1 -185 -200 -223l141 -191q48 -61 174 -184l-145 -27q-72 72 -156 193q-60 86 -129 200l-59 -2v-379h-117zM662 700h86q103 0 147 41q35 38 35 119q0 139 -154 137l-114 -2v-295z" />
<glyph unicode="&#xb0;" horiz-adv-x="559" d="M-10 1192q0 119 85 203q86 84 208 84q121 0 204 -84q82 -83 82 -203t-82 -203q-83 -84 -204 -84q-123 0 -208 84t-85 203zM139 1192q0 -61 41 -102t103 -41q61 0 99 41t38 102t-38 102t-99 41q-62 0 -103 -41t-41 -102z" />
<glyph unicode="&#xb1;" horiz-adv-x="1026" d="M106 532v195h308v332h190v-332h309v-195h-309v-350h-190v350h-308zM133 -78v178h770v-178h-770z" />
<glyph unicode="&#xb2;" horiz-adv-x="2172" />
<glyph unicode="&#xb3;" horiz-adv-x="2172" />
<glyph unicode="&#xb4;" horiz-adv-x="673" d="M96 1282l441 182l65 -159l-438 -170z" />
<glyph unicode="&#xb6;" horiz-adv-x="1038" d="M102 989q0 176 84 254q78 72 242 72h207v-1315h-203v649q-331 0 -330 340zM692 0v1315h203v-1315h-203z" />
<glyph unicode="&#xb8;" horiz-adv-x="419" d="M23 -360l83 59q62 -72 121 -72q16 0 33 32q16 31 16 50q0 26 -15 50t-28 24q-58 0 -73 -33l-117 35l12 223l164 2l-6 -84h6q87 0 139 -63q45 -55 45 -129q0 -83 -38 -144q-49 -79 -140 -79q-145 0 -202 129z" />
<glyph unicode="&#xba;" horiz-adv-x="2172" />
<glyph unicode="&#xbb;" horiz-adv-x="804" d="M-35 258l271 328l-269 329l221 9l316 -332l-316 -342zM289 258l270 328l-270 329l223 9l315 -332l-315 -342z" />
<glyph unicode="&#xbd;" horiz-adv-x="2172" />
<glyph unicode="&#xbe;" horiz-adv-x="2172" />
<glyph unicode="&#xbf;" horiz-adv-x="940" d="M70 166q0 210 155 328q87 67 115 188q26 114 8 319h219q17 -99 17 -192q0 -311 -156 -455q-88 -82 -90 -82q-49 -55 -49 -108q0 -74 42 -115q43 -41 105 -41q146 0 215 215l195 -102q-67 -171 -158 -250q-95 -82 -244 -82q-172 0 -278 123q-96 111 -96 254zM315 1245 q0 63 43 106q44 44 103 44t101 -43q42 -44 42 -107t-42 -107t-101 -44t-103 44q-43 43 -43 107z" />
<glyph unicode="&#xc0;" horiz-adv-x="1187" d="M59 4l424 1335h209l432 -1325l-237 -39l-115 369h-371l-110 -369zM319 1589l97 133l430 -196l-98 -121zM457 535h260l-129 454z" />
<glyph unicode="&#xc1;" horiz-adv-x="1163" d="M59 4l424 1335h209l432 -1325l-237 -39l-115 369h-371l-110 -369zM299 1528l440 182l127 -160l-438 -170zM457 535h260l-129 454z" />
<glyph unicode="&#xc2;" horiz-adv-x="1163" d="M59 4l424 1335h209l432 -1325l-237 -39l-115 369h-371l-110 -369zM299 1354v200l281 218l290 -218v-198l-288 178zM457 535h260l-129 454z" />
<glyph unicode="&#xc3;" horiz-adv-x="1187" d="M59 4l424 1335h209l432 -1325l-237 -39l-115 369h-371l-110 -369zM266 1583q80 102 215 107q62 2 142 -54q79 -55 100 -55q25 0 104 64l76 -156q-33 -33 -89 -55q-58 -23 -87 -23q-59 0 -156 62q-74 47 -90 47q-52 0 -135 -97zM457 535h260l-129 454z" />
<glyph unicode="&#xc4;" horiz-adv-x="1187" d="M59 4l424 1335h209l432 -1325l-237 -39l-115 369h-371l-110 -369zM238 1552q0 58 32 97q40 51 111 51q67 0 108 -51q35 -44 35 -97q0 -54 -35 -98q-40 -49 -108 -49q-70 0 -109 49q-34 40 -34 98zM457 535h260l-129 454zM668 1552q0 58 32 97q40 51 111 51q65 0 109 -51 q34 -43 34 -97q0 -55 -34 -98q-40 -49 -109 -49q-71 0 -111 49q-32 39 -32 98z" />
<glyph unicode="&#xc5;" horiz-adv-x="1187" d="M59 4l424 1335h209l432 -1325l-237 -39l-115 369h-371l-110 -369zM414 1583q0 77 52 126q53 50 134 50t134 -50q52 -49 52 -126q0 -79 -52 -128q-53 -50 -134 -50t-134 50q-52 49 -52 128zM457 535h260l-129 454zM532 1583q0 -90 68 -90t68 90q0 88 -68 88t-68 -88z" />
<glyph unicode="&#xc6;" horiz-adv-x="1765" d="M47 4l438 1335h213l207 -704v678h778v-197h-526v-315h492v-203h-492v-395h520v-205h-788l-109 346h-381l-112 -369zM465 555h254l-129 455z" />
<glyph unicode="&#xc7;" horiz-adv-x="1167" d="M76 674q0 265 137 456q157 221 432 222q187 2 408 -129l-105 -224l-139 93q-89 53 -154 53q-165 0 -260 -174q-76 -140 -76 -320q0 -195 95 -326q94 -130 225 -130q112 0 317 116l113 -192q-140 -77 -205 -99q-81 -31 -184 -36l-6 -80q19 8 51 8q87 0 139 -59 q45 -51 45 -123t-51 -125q-52 -54 -145 -54q-131 0 -178 99l75 69q56 -65 105 -65q71 0 71 70q0 79 -67 79q-29 0 -72 -30l-94 43l10 172q-240 30 -370 241q-117 185 -117 445z" />
<glyph unicode="&#xc8;" horiz-adv-x="1001" d="M139 0v1311h735v-215h-495v-295h463v-203l-463 2v-377l491 2v-225h-731zM258 1589l94 133l432 -196l-100 -121z" />
<glyph unicode="&#xc9;" horiz-adv-x="960" d="M139 0v1311h735v-215h-495v-295h463v-203l-463 2v-377l491 2v-225h-731zM238 1548l438 183l127 -160l-438 -170z" />
<glyph unicode="&#xca;" horiz-adv-x="1001" d="M139 0v1311h735v-215h-495v-295h463v-203l-463 2v-377l491 2v-225h-731zM256 1395v180l283 217l290 -217v-178l-290 157z" />
<glyph unicode="&#xcb;" horiz-adv-x="1001" d="M139 0v1311h735v-215h-495v-295h463v-203l-463 2v-377l491 2v-225h-731zM176 1552q0 56 33 97q41 51 110 51q67 0 107 -51q35 -44 35 -97q0 -54 -35 -98q-39 -49 -107 -49q-70 0 -110 49q-33 40 -33 98zM604 1552q0 53 35 97q39 51 109 51q68 0 108 -51q35 -44 35 -97 q0 -54 -35 -98q-40 -49 -108 -49q-70 0 -109 49q-35 41 -35 98z" />
<glyph unicode="&#xcc;" horiz-adv-x="440" d="M-23 1589l97 133l430 -196l-98 -121zM98 0v1315h264v-1315h-264z" />
<glyph unicode="&#xcd;" horiz-adv-x="440" d="M-43 1528l440 182l127 -160l-438 -170zM98 0v1315h264v-1315h-264z" />
<glyph unicode="&#xce;" horiz-adv-x="440" d="M-63 1395v180l282 217l291 -217v-178l-291 157zM86 0v1315h264v-1315h-264z" />
<glyph unicode="&#xcf;" horiz-adv-x="440" d="M-125 1532q0 56 33 96q40 51 110 51q66 0 107 -51q35 -44 35 -96q0 -54 -35 -98q-39 -50 -107 -50q-69 0 -110 50q-33 40 -33 98zM98 0v1315h264v-1315h-264zM303 1532q0 52 35 96q39 51 108 51q68 0 109 -51q35 -44 35 -96q0 -54 -35 -98q-41 -50 -109 -50 q-69 0 -108 50q-35 41 -35 98z" />
<glyph unicode="&#xd0;" horiz-adv-x="1157" d="M12 514v209h109v594q178 8 315 8q331 0 490 -154q165 -163 166 -509q2 -314 -160 -486q-166 -180 -483 -180q-63 0 -148 4t-180 4v510h-109zM367 219h131q162 0 254 129q82 116 82 293q0 236 -74 354q-84 129 -273 129h-57q-54 -2 -63 -2v-399h129v-209h-129v-295z" />
<glyph unicode="&#xd1;" horiz-adv-x="1167" d="M139 -2v1321h197l508 -789v781h229v-1280l-174 -62q-157 291 -528 840v-807zM309 1522q79 101 215 106q64 2 142 -53q79 -55 100 -55q26 0 104 63l76 -156q-33 -33 -89 -55t-87 -22q-61 0 -156 61q-74 47 -90 47q-52 0 -135 -96z" />
<glyph unicode="&#xd2;" horiz-adv-x="1318" d="M76 659q0 286 170 476q169 188 432 188q262 0 425 -188t163 -476q0 -324 -176 -514q-166 -178 -426 -178q-259 0 -418 178q-170 190 -170 514zM311 641q0 -192 103 -331q102 -138 250 -138q150 0 259 138q109 137 109 329q0 199 -102 341t-256 142q-153 0 -258 -142 t-105 -339zM408 1589l96 133l430 -196l-98 -121z" />
<glyph unicode="&#xd3;" horiz-adv-x="1318" d="M76 659q0 286 170 476q169 188 432 188q262 0 425 -188t163 -476q0 -324 -176 -514q-166 -178 -426 -178q-259 0 -418 178q-170 190 -170 514zM311 641q0 -192 103 -331q102 -138 250 -138q150 0 259 138q109 137 109 329q0 199 -102 341t-256 142q-153 0 -258 -142 t-105 -339zM387 1528l440 182l127 -160l-438 -170z" />
<glyph unicode="&#xd4;" horiz-adv-x="1318" d="M76 659q0 286 170 476q169 188 432 188q262 0 425 -188t163 -476q0 -324 -176 -514q-166 -178 -426 -178q-259 0 -418 178q-170 190 -170 514zM311 641q0 -192 103 -331q102 -138 250 -138q150 0 259 138q109 137 109 329q0 199 -102 341t-256 142q-153 0 -258 -142 t-105 -339zM399 1354v200l283 218l291 -218v-198l-291 178z" />
<glyph unicode="&#xd5;" horiz-adv-x="1327" d="M76 659q0 286 170 476q169 188 432 188q262 0 425 -188t163 -476q0 -324 -176 -514q-166 -178 -426 -178q-259 0 -418 178q-170 190 -170 514zM309 1542q80 102 215 107q62 2 142 -54q79 -55 100 -55q25 0 104 64l76 -156q-33 -33 -89 -55q-58 -23 -87 -23q-59 0 -156 62 q-74 47 -90 47q-52 0 -135 -97zM311 641q0 -192 103 -331q102 -138 250 -138q150 0 259 138q109 137 109 329q0 199 -102 341t-256 142q-153 0 -258 -142t-105 -339z" />
<glyph unicode="&#xd6;" horiz-adv-x="1327" d="M76 659q0 286 170 476q169 188 432 188q262 0 425 -188t163 -476q0 -324 -176 -514q-166 -178 -426 -178q-259 0 -418 178q-170 190 -170 514zM311 641q0 -192 103 -331q102 -138 250 -138q150 0 259 138q109 137 109 329q0 199 -102 341t-256 142q-153 0 -258 -142 t-105 -339zM326 1532q0 57 32 96q40 51 111 51q69 0 109 -51q34 -43 34 -96q0 -55 -34 -98q-41 -50 -109 -50q-70 0 -109 50q-34 40 -34 98zM756 1532q0 57 32 96q40 51 111 51q65 0 109 -51q34 -43 34 -96q0 -55 -34 -98q-41 -50 -109 -50q-70 0 -111 50q-32 39 -32 98z " />
<glyph unicode="&#xd8;" horiz-adv-x="1318" d="M66 659q0 286 170 476q169 188 432 188q45 0 84 -6l26 90l223 -70l-30 -100q132 -83 209 -236q75 -149 75 -342q0 -324 -176 -514q-166 -178 -426 -178q-27 0 -63 4l-37 -123l-223 70l37 121q-301 172 -301 620zM301 641q0 -225 135 -371l256 850q-14 2 -28 2 q-157 0 -260 -142t-103 -339zM651 172h2q149 0 259 138q110 139 110 329q0 222 -121 365z" />
<glyph unicode="&#xd9;" horiz-adv-x="1169" d="M139 481v830h244v-830q0 -315 201 -315q89 0 151 70q72 84 72 245v830h244v-830q0 -257 -152 -397q-130 -119 -319 -119t-306 121q-135 135 -135 395zM322 1589l96 133l430 -196l-98 -121z" />
<glyph unicode="&#xda;" horiz-adv-x="1169" d="M139 481v830h244v-830q0 -315 201 -315q89 0 151 70q72 84 72 245v830h244v-830q0 -257 -152 -397q-130 -119 -319 -119t-306 121q-135 135 -135 395zM301 1528l440 182l127 -160l-438 -170z" />
<glyph unicode="&#xdb;" horiz-adv-x="1169" d="M139 481v830h244v-830q0 -315 201 -315q89 0 151 70q72 84 72 245v830h244v-830q0 -257 -152 -397q-130 -119 -319 -119t-306 121q-135 135 -135 395zM297 1374v180l283 218l290 -218v-178l-290 158z" />
<glyph unicode="&#xdc;" horiz-adv-x="1067" d="M139 481v830h244v-830q0 -315 201 -315q89 0 151 70q72 84 72 245v830h244v-830q0 -257 -152 -397q-130 -119 -319 -119t-306 121q-135 135 -135 395zM219 1532q0 56 33 96q41 51 110 51q66 0 107 -51q35 -44 35 -96q0 -54 -35 -98q-39 -50 -107 -50q-69 0 -110 50 q-33 40 -33 98zM647 1532q0 52 35 96q39 51 109 51q67 0 108 -51q35 -44 35 -96q0 -54 -35 -98q-41 -50 -108 -50q-70 0 -109 50q-35 41 -35 98z" />
<glyph unicode="&#xdd;" horiz-adv-x="1030" d="M53 1272l226 67l251 -571l248 571l217 -67l-348 -717v-555h-244v555zM281 1425l438 183l127 -160l-438 -170z" />
<glyph unicode="&#xde;" horiz-adv-x="1112" d="M123 -221v1655h233v-166q133 118 211 118q210 0 334 -178q110 -158 111 -374q2 -290 -129 -435q-114 -127 -312 -127q-52 0 -107 32l-108 65v-590h-233zM356 573q29 -43 89 -77q58 -33 116 -33q107 0 164 106q49 94 49 240q0 151 -55 252q-66 119 -187 119 q-110 0 -176 -136v-471z" />
<glyph unicode="&#xdf;" horiz-adv-x="1124" d="M106 -2v1026q0 190 107 309q117 131 332 131q182 0 284 -103q103 -105 103 -282q0 -135 -70 -258q-122 45 -170 45q-94 0 -94 -100q0 -36 47 -59q16 -8 109 -37q161 -51 229 -160q47 -77 47 -193q0 -145 -107 -246q-108 -102 -249 -102q-116 0 -164 23q-55 27 -145 133 l102 162q61 -85 121 -107q26 -10 96 -10q55 0 90 47q27 38 27 88q0 65 -70 105q-24 12 -123 45q-229 76 -229 321q0 82 72 174q85 109 198 109q43 0 92 -19q7 12 7 33q0 6 -1.5 21.5t-1.5 23.5t-0.5 16t-1 12.5t-0.5 6.5q0 48 -67 78q-61 29 -141 29q-83 0 -143 -68 t-60 -168v-1026h-226z" />
<glyph unicode="&#xe0;" horiz-adv-x="1005" d="M84 279q0 170 98 241q61 42 250 80q112 21 174 27v106q0 45 -37 85t-86 40q-186 0 -303 -139l-88 125q55 91 182 151q114 54 209 54q145 0 245 -95q99 -94 99 -239v-514q0 -11 16 -29q15 -16 31 -16q67 0 87 20l22 -131q-125 -68 -201 -68q-31 0 -80 37q-53 42 -69 97 q-84 -75 -119 -99q-68 -45 -135 -45q-122 0 -205 80q-90 89 -90 232zM199 1305l438 -170l129 147l-440 182zM283 281q0 -60 36 -102q38 -44 87 -44q125 0 204 98l2 224q-58 0 -149 -17q-98 -16 -131 -39q-49 -30 -49 -120z" />
<glyph unicode="&#xe1;" horiz-adv-x="1005" d="M84 279q0 170 98 241q61 42 250 80q112 21 174 27v106q0 45 -37 85t-86 40q-186 0 -303 -139l-88 125q55 91 182 151q114 54 209 54q145 0 245 -95q99 -94 99 -239v-514q0 -11 16 -29q15 -16 31 -16q67 0 87 20l22 -131q-125 -68 -201 -68q-31 0 -80 37q-53 42 -69 97 q-84 -75 -119 -99q-68 -45 -135 -45q-122 0 -205 80q-90 89 -90 232zM258 1282l440 182l127 -159l-438 -170zM283 281q0 -60 36 -102q38 -44 87 -44q125 0 204 98l2 224q-58 0 -149 -17q-98 -16 -131 -39q-49 -30 -49 -120z" />
<glyph unicode="&#xe2;" horiz-adv-x="1005" d="M84 279q0 170 98 241q61 42 250 80q112 21 174 27v106q0 45 -37 85t-86 40q-186 0 -303 -139l-88 125q55 91 182 151q114 54 209 54q145 0 245 -95q99 -94 99 -239v-514q0 -11 16 -29q15 -16 31 -16q67 0 87 20l22 -131q-125 -68 -201 -68q-31 0 -80 37q-53 42 -69 97 q-84 -75 -119 -99q-68 -45 -135 -45q-122 0 -205 80q-90 89 -90 232zM236 1067v180l282 217l291 -217v-178l-291 158zM283 281q0 -60 36 -102q38 -44 87 -44q125 0 204 98l2 224q-58 0 -149 -17q-98 -16 -131 -39q-49 -30 -49 -120z" />
<glyph unicode="&#xe3;" horiz-adv-x="1005" d="M84 279q0 170 98 241q61 42 250 80q112 21 174 27v106q0 45 -37 85t-86 40q-186 0 -303 -139l-88 125q55 91 182 151q114 54 209 54q145 0 245 -95q99 -94 99 -239v-514q0 -11 16 -29q15 -16 31 -16q67 0 87 20l22 -131q-125 -68 -201 -68q-31 0 -80 37q-53 42 -69 97 q-84 -75 -119 -99q-68 -45 -135 -45q-122 0 -205 80q-90 89 -90 232zM158 1296q80 102 215 107q62 2 142 -53q82 -56 101 -56q24 0 103 64l78 -156q-33 -33 -89 -55q-58 -23 -87 -23q-64 0 -156 62q-73 47 -90 47q-53 0 -135 -96zM283 281q0 -60 36 -102q38 -44 87 -44 q125 0 204 98l2 224q-58 0 -149 -17q-98 -16 -131 -39q-49 -30 -49 -120z" />
<glyph unicode="&#xe4;" horiz-adv-x="1005" d="M84 279q0 170 98 241q61 42 250 80q112 21 174 27v106q0 45 -37 85t-86 40q-186 0 -303 -139l-88 125q55 91 182 151q114 54 209 54q145 0 245 -95q99 -94 99 -239v-514q0 -11 16 -29q15 -16 31 -16q67 0 87 20l22 -131q-125 -68 -201 -68q-31 0 -80 37q-53 42 -69 97 q-84 -75 -119 -99q-68 -45 -135 -45q-122 0 -205 80q-90 89 -90 232zM154 1225q0 57 32 96q40 51 111 51q69 0 109 -51q34 -43 34 -96q0 -56 -34 -99q-40 -49 -109 -49q-70 0 -109 49q-34 40 -34 99zM283 281q0 -60 36 -102q38 -44 87 -44q125 0 204 98l2 224 q-58 0 -149 -17q-98 -16 -131 -39q-49 -30 -49 -120zM584 1225q0 57 32 96q40 51 111 51q65 0 109 -51q34 -43 34 -96q0 -56 -34 -99q-40 -49 -109 -49q-71 0 -111 49q-32 39 -32 99z" />
<glyph unicode="&#xe5;" horiz-adv-x="1005" d="M84 279q0 170 98 241q61 42 250 80q112 21 174 27v106q0 45 -37 85t-86 40q-186 0 -303 -139l-88 125q55 91 182 151q114 54 209 54q145 0 245 -95q99 -94 99 -239v-514q0 -11 16 -29q15 -16 31 -16q67 0 87 20l22 -131q-125 -68 -201 -68q-31 0 -80 37q-53 42 -69 97 q-84 -75 -119 -99q-68 -45 -135 -45q-122 0 -205 80q-90 89 -90 232zM283 281q0 -60 36 -102q38 -44 87 -44q125 0 204 98l2 224q-58 0 -149 -17q-98 -16 -131 -39q-49 -30 -49 -120zM307 1337q0 77 51 126q52 50 134 50q83 0 135 -50q51 -49 51 -126q0 -79 -51 -128 q-52 -50 -135 -50q-82 0 -134 50q-51 49 -51 128zM426 1337q0 -90 66 -90q67 0 67 90q0 88 -67 88q-66 0 -66 -88z" />
<glyph unicode="&#xe6;" horiz-adv-x="1587" d="M84 279q0 170 104 247q68 50 254 95q65 15 181 32v80q0 44 -37 74q-39 31 -88 31q-94 0 -267 -140l-125 166q82 75 209 133q119 52 183 52q183 0 286 -136q131 125 336 125q157 0 262 -112t105 -303v-134h-615q5 -350 256 -350q110 0 232 160l110 -145 q-144 -179 -356 -179q-234 0 -358 144q-106 -93 -181 -121q-85 -31 -186 -31q-127 0 -213 80q-92 86 -92 232zM301 274q-1 -55 27 -82.5t84 -27.5q67 0 131 29q80 35 80 94v151l-109 -18q-112 -21 -141 -33q-72 -33 -72 -113zM874 666h386v2q0 211 -152 211q-111 0 -162 -56 q-39 -41 -72 -157z" />
<glyph unicode="&#xe7;" horiz-adv-x="989" d="M80 496q0 273 160 424q133 128 323 127q114 0 311 -132l-67 -141q-135 109 -262 109q-110 0 -172 -131q-54 -114 -54 -263q0 -156 67 -255q66 -97 173 -97q120 0 266 131l93 -121q-145 -165 -338 -172h-9l-6 -71q19 8 51 8q88 0 140 -59q47 -52 47 -123q0 -73 -49 -123 q-56 -56 -150 -56q-130 0 -176 99l76 69q56 -65 102 -65q74 0 74 70q0 79 -70 79q-28 0 -69 -30l-97 43l9 168h8q-211 37 -311 231q-70 135 -70 281zM428 -350l76 69q56 -65 102 -65q74 0 74 70q0 79 -70 79q-28 0 -69 -30l-97 43l11 168l116 -9l-6 -71q19 8 51 8 q88 0 140 -59q47 -52 47 -123q0 -73 -49 -123q-56 -56 -150 -56q-130 0 -176 99z" />
<glyph unicode="&#xe8;" horiz-adv-x="1017" d="M80 506q0 231 123 381q130 157 354 157q153 0 258 -102q115 -113 115 -301v-154h-606q5 -347 239 -348q133 -1 266 129l93 -125q-107 -102 -187 -137q-74 -31 -186 -31q-267 0 -391 222q-78 144 -78 309zM301 1305l438 -170l88 147l-440 182zM338 662h369 q10 223 -164 223q-69 0 -123 -54q-64 -63 -82 -169z" />
<glyph unicode="&#xe9;" horiz-adv-x="1017" d="M80 506q0 231 123 381q130 157 354 157q153 0 258 -102q115 -113 115 -301v-154h-606q5 -347 239 -348q133 -1 266 129l93 -125q-107 -102 -187 -137q-74 -31 -186 -31q-267 0 -391 222q-78 144 -78 309zM258 1282l440 182l66 -159l-438 -170zM338 662h369 q10 223 -164 223q-69 0 -123 -54q-64 -63 -82 -169z" />
<glyph unicode="&#xea;" horiz-adv-x="1017" d="M80 506q0 231 123 381q130 157 354 157q153 0 258 -102q115 -113 115 -301v-154h-606q5 -347 239 -348q133 -1 266 129l93 -125q-107 -102 -187 -137q-74 -31 -186 -31q-267 0 -391 222q-78 144 -78 309zM276 1149v180l283 217l291 -217v-178l-291 158zM338 662h369 q10 223 -164 223q-69 0 -123 -54q-64 -63 -82 -169z" />
<glyph unicode="&#xeb;" horiz-adv-x="1017" d="M80 506q0 231 123 381q130 157 354 157q153 0 258 -102q115 -113 115 -301v-154h-606q5 -347 239 -348q133 -1 266 129l93 -125q-107 -102 -187 -137q-74 -31 -186 -31q-267 0 -391 222q-78 144 -78 309zM154 1286q0 53 34 96q40 52 109 52q68 0 109 -52q34 -43 34 -96 q0 -55 -34 -98q-40 -49 -109 -49q-70 0 -109 49q-34 40 -34 98zM338 662h369q10 223 -164 223q-69 0 -123 -54q-64 -63 -82 -169zM584 1286q0 57 32 96q41 52 111 52q68 0 109 -52q34 -43 34 -96q0 -55 -34 -98q-40 -49 -109 -49q-70 0 -109 49q-34 40 -34 98z" />
<glyph unicode="&#xec;" horiz-adv-x="509" d="M-27 1305l439 -170l129 147l-441 182zM129 0v1014h219v-1014h-219z" />
<glyph unicode="&#xed;" horiz-adv-x="479" d="M-20 1282l438 182l86 -159l-438 -170zM129 0v1014h219v-1014h-219z" />
<glyph unicode="&#xee;" horiz-adv-x="430" d="M-51 1067v180l282 217l291 -217v-178l-291 158zM129 0v1014h219v-1014h-219z" />
<glyph unicode="&#xef;" horiz-adv-x="423" d="M-113 1286q0 52 35 96q40 52 109 52q67 0 108 -52q35 -44 35 -96q0 -54 -35 -98q-40 -49 -108 -49q-70 0 -109 49q-35 41 -35 98zM129 0v1014h219v-1014h-219zM317 1286q0 56 33 96q41 52 111 52q67 0 108 -52q35 -44 35 -96q0 -54 -35 -98q-40 -49 -108 -49 q-70 0 -109 49q-35 41 -35 98z" />
<glyph unicode="&#xf0;" horiz-adv-x="1185" d="M74 510q0 285 155 430q134 127 351 127q52 0 225 -117q0 44 -47 105l-56 63h-286v150h180q-29 44 -115 131l154 108q121 -118 203 -239h274v-150h-154q52 -115 86 -284q33 -157 31 -263q-7 -606 -536 -606q-216 0 -349 178q-116 155 -116 367zM317 514q0 -144 74 -268 q80 -131 189 -131q131 0 200 123q61 107 62 270q0 27 0.5 53t0.5 45.5v36.5t0.5 28.5t0.5 20v12.5v3q-153 211 -269 211q-120 0 -192 -119q-66 -111 -66 -285z" />
<glyph unicode="&#xf1;" horiz-adv-x="995" d="M129 0v1016h219v-182q124 213 252 213q129 0 221 -101q99 -107 99 -266v-680h-220v655q0 105 -36 158q-30 49 -80 49q-76 0 -156 -87q-80 -88 -80 -154v-621h-219zM201 1296q80 102 215 107q62 2 142 -53q82 -56 101 -56q24 0 103 64l78 -156q-33 -33 -89 -55 q-58 -23 -87 -23q-64 0 -156 62q-73 47 -90 47q-52 0 -135 -96z" />
<glyph unicode="&#xf2;" horiz-adv-x="1112" d="M80 516q0 263 166 410q136 123 319 123q181 0 314 -123q159 -146 159 -410q0 -179 -92 -330q-129 -209 -383 -209q-277 0 -401 211q-82 139 -82 328zM317 504q0 -148 60 -250q66 -117 178 -117q116 0 184 119q62 106 62 258q0 148 -56 254q-63 119 -172 119 q-125 0 -194 -121q-62 -107 -62 -262zM365 1323l96 133l430 -196l-98 -121z" />
<glyph unicode="&#xf3;" horiz-adv-x="1112" d="M80 516q0 263 166 410q136 123 319 123q181 0 314 -123q159 -146 159 -410q0 -179 -92 -330q-129 -209 -383 -209q-277 0 -401 211q-82 139 -82 328zM317 504q0 -148 60 -250q66 -117 178 -117q116 0 184 119q62 106 62 258q0 148 -56 254q-63 119 -172 119 q-125 0 -194 -121q-62 -107 -62 -262zM344 1282l440 182l127 -159l-438 -170z" />
<glyph unicode="&#xf4;" horiz-adv-x="1112" d="M80 516q0 263 166 410q136 123 319 123q181 0 314 -123q159 -146 159 -410q0 -179 -92 -330q-129 -209 -383 -209q-277 0 -401 211q-82 139 -82 328zM297 1067v180l283 217l290 -217v-178l-290 158zM317 504q0 -148 60 -250q66 -117 178 -117q116 0 184 119 q62 106 62 258q0 148 -56 254q-63 119 -172 119q-125 0 -194 -121q-62 -107 -62 -262z" />
<glyph unicode="&#xf5;" horiz-adv-x="1112" d="M80 516q0 263 166 410q136 123 319 123q181 0 314 -123q159 -146 159 -410q0 -179 -92 -330q-129 -209 -383 -209q-277 0 -401 211q-82 139 -82 328zM266 1296q80 102 215 107q64 2 142 -53q80 -56 100 -56q25 0 104 64l76 -156q-33 -33 -89 -55q-58 -23 -87 -23 q-59 0 -156 62q-74 47 -90 47q-53 0 -135 -96zM317 504q0 -148 60 -250q66 -117 178 -117q116 0 184 119q62 106 62 258q0 148 -56 254q-63 119 -172 119q-125 0 -194 -121q-62 -107 -62 -262z" />
<glyph unicode="&#xf6;" horiz-adv-x="1112" d="M80 516q0 263 166 410q136 123 319 123q181 0 314 -123q159 -146 159 -410q0 -179 -92 -330q-129 -209 -383 -209q-277 0 -401 211q-82 139 -82 328zM215 1286q0 52 35 96q40 52 108 52t109 -52q35 -44 35 -96q0 -54 -35 -98q-40 -49 -109 -49t-108 49q-35 41 -35 98z M317 504q0 -148 60 -250q66 -117 178 -117q116 0 184 119q62 106 62 258q0 148 -56 254q-63 119 -172 119q-125 0 -194 -121q-62 -107 -62 -262zM645 1286q0 56 33 96q41 52 110 52q68 0 109 -52q35 -44 35 -96q0 -54 -35 -98q-40 -49 -109 -49t-108 49q-35 41 -35 98z" />
<glyph unicode="&#xf7;" horiz-adv-x="1015" d="M106 532v205h828v-205h-828zM389 291q0 66 43 112q45 48 105 48q61 0 106 -48q43 -46 43 -112q0 -69 -43 -115q-44 -47 -106 -47q-61 0 -105 47q-43 46 -43 115zM389 983q0 69 43 115q44 47 105 47q62 0 106 -47q43 -46 43 -115q0 -67 -43 -113q-44 -47 -106 -47 q-61 0 -105 47q-43 46 -43 113z" />
<glyph unicode="&#xf8;" horiz-adv-x="1118" d="M80 516q0 263 166 410q136 123 319 123h23l43 145l221 -70l-43 -145q229 -141 229 -463q0 -179 -92 -330q-129 -209 -383 -209q-20 0 -53 3l-39 -132l-219 70l39 133q-120 79 -172 234q-39 108 -39 231zM317 504q0 -124 43 -219l179 600q-108 -17 -168 -135 q-54 -105 -54 -246zM557 137q116 1 184 119q60 106 60 258q0 147 -56 254z" />
<glyph unicode="&#xf9;" horiz-adv-x="987" d="M129 340v674h219v-668q0 -192 107 -192q74 0 159 94q80 86 80 139v627h219v-1014h-198q-6 54 -21 145q-140 -182 -254 -182q-127 0 -217 100q-94 107 -94 277zM301 1323l94 133l432 -196l-100 -121z" />
<glyph unicode="&#xfa;" horiz-adv-x="987" d="M129 340v674h219v-668q0 -192 107 -192q74 0 159 94q80 86 80 139v627h219v-1014h-198q-6 54 -21 145q-140 -182 -254 -182q-127 0 -217 100q-94 107 -94 277zM258 1282l440 182l127 -159l-438 -170z" />
<glyph unicode="&#xfb;" horiz-adv-x="987" d="M129 340v674h219v-668q0 -192 107 -192q74 0 159 94q80 86 80 139v627h219v-1014h-198q-6 54 -21 145q-140 -182 -254 -182q-127 0 -217 100q-94 107 -94 277zM256 1067v180l283 217l290 -217v-178l-290 158z" />
<glyph unicode="&#xfc;" horiz-adv-x="987" d="M129 340v674h219v-668q0 -192 107 -192q74 0 159 94q80 86 80 139v627h219v-1014h-198q-6 54 -21 145q-140 -182 -254 -182q-127 0 -217 100q-94 107 -94 277zM174 1286q0 52 35 96q40 52 108 52t109 -52q35 -44 35 -96q0 -54 -35 -98q-40 -49 -109 -49t-108 49 q-35 41 -35 98zM604 1286q0 56 33 96q41 52 111 52q67 0 108 -52q35 -44 35 -96q0 -54 -35 -98q-40 -49 -108 -49q-70 0 -109 49q-35 41 -35 98z" />
<glyph unicode="&#xfe;" horiz-adv-x="1069" d="M123 -399v1802h231v-518q88 84 113 102q70 53 127 53q199 0 313 -151q102 -141 103 -350q2 -294 -131 -443q-118 -133 -322 -133q-83 0 -141 29q-11 5 -56 35l-6 4v-430h-231zM354 227q28 -26 93 -52q63 -25 110 -25q107 0 164 116q51 102 51 252q0 134 -45 223 q-53 105 -160 105q-53 0 -121 -80q-54 -68 -92 -148v-391z" />
<glyph unicode="&#xff;" horiz-adv-x="956" d="M45 -352l66 194q77 -41 143 -41q62 0 113 119l59 178l-369 871l217 61l261 -749l221 745l205 -51l-408 -1135q-34 -95 -109 -162q-88 -79 -200 -79q-53 0 -199 49zM131 1225q0 55 33 96q40 51 110 51q66 0 107 -51q35 -44 35 -96q0 -55 -35 -99q-39 -49 -107 -49 q-70 0 -110 49q-33 40 -33 99zM559 1225q0 52 35 96q39 51 108 51q68 0 109 -51q35 -44 35 -96q0 -55 -35 -99q-40 -49 -109 -49t-108 49q-35 41 -35 99z" />
<glyph unicode="&#x152;" horiz-adv-x="2105" d="M86 696q0 287 172 468q173 182 442 182q307 0 498 -302v265h776v-215h-588v-295h570v-203h-570v-377h588v-219h-776v322q-197 -328 -510 -328q-264 0 -430 184q-172 191 -172 518zM330 678q0 -196 104 -336q105 -141 254 -141q151 0 262 141t111 336q0 198 -102 331 q-102 134 -261 134t-264 -135q-104 -134 -104 -330z" />
<glyph unicode="&#x153;" horiz-adv-x="2115" d="M182 516q0 263 172 410q141 123 332 123q123 0 234 -60q125 -66 192 -190q130 239 410 239q160 0 260 -100q110 -106 110 -297v-154h-604q12 -348 219 -348q144 0 258 164l127 -164q-176 -164 -399 -164q-166 0 -264 76q-72 55 -127 172q-134 -246 -418 -246 q-287 0 -416 211q-86 140 -86 328zM428 504q0 -144 61 -242q67 -106 187 -106q123 0 192 108q62 101 62 250q0 148 -60 244q-63 108 -176 108q-131 0 -202 -110q-64 -101 -64 -252zM1315 662h364q-4 82 -43 143q-47 74 -129 74q-177 0 -192 -217z" />
<glyph unicode="&#x178;" horiz-adv-x="987" d="M53 1272l226 67l251 -571l248 571l217 -67l-348 -717v-555h-244v555zM197 1552q0 58 32 97q41 51 111 51q68 0 109 -51q34 -43 34 -97q0 -55 -34 -98q-40 -49 -109 -49q-70 0 -109 49q-34 40 -34 98zM627 1552q0 58 32 97q41 51 111 51q66 0 109 -51q34 -43 34 -97 q0 -55 -34 -98q-40 -49 -109 -49q-71 0 -111 49q-32 39 -32 98z" />
<glyph unicode="&#x2c6;" horiz-adv-x="690" d="M72 1067v180l282 217l291 -217v-178l-291 158z" />
<glyph unicode="&#x2dc;" horiz-adv-x="768" d="M82 1296q84 103 217 107q62 2 140 -53q80 -56 102 -56q27 0 102 64l78 -156q-33 -33 -89 -55q-58 -23 -87 -23q-64 0 -156 62q-73 47 -90 47q-53 0 -135 -96z" />
<glyph unicode="&#x2000;" horiz-adv-x="896" />
<glyph unicode="&#x2001;" horiz-adv-x="1792" />
<glyph unicode="&#x2002;" horiz-adv-x="896" />
<glyph unicode="&#x2003;" horiz-adv-x="1792" />
<glyph unicode="&#x2004;" horiz-adv-x="597" />
<glyph unicode="&#x2005;" horiz-adv-x="448" />
<glyph unicode="&#x2006;" horiz-adv-x="298" />
<glyph unicode="&#x2007;" horiz-adv-x="298" />
<glyph unicode="&#x2008;" horiz-adv-x="224" />
<glyph unicode="&#x2009;" horiz-adv-x="358" />
<glyph unicode="&#x200a;" horiz-adv-x="99" />
<glyph unicode="&#x2010;" horiz-adv-x="778" d="M102 547v190h574v-190h-574z" />
<glyph unicode="&#x2011;" horiz-adv-x="778" d="M102 547v190h574v-190h-574z" />
<glyph unicode="&#x2012;" horiz-adv-x="778" d="M102 547v190h574v-190h-574z" />
<glyph unicode="&#x2013;" d="M70 598v145h884v-145h-884z" />
<glyph unicode="&#x2014;" horiz-adv-x="2048" d="M55 598v145h1938v-145h-1938z" />
<glyph unicode="&#x2018;" horiz-adv-x="282" d="M2 1010q0 75 49 192q44 110 94 180l136 -6q-39 -84 -54 -190q-5 -66 -10 -176h-215z" />
<glyph unicode="&#x2019;" horiz-adv-x="282" d="M2 1036q37 81 53 191q8 109 11 176h215q0 -73 -50 -203q-45 -122 -94 -190z" />
<glyph unicode="&#x201a;" horiz-adv-x="438" d="M2 -193q37 81 53 191q8 109 11 176h215q0 -73 -50 -203q-45 -122 -94 -190z" />
<glyph unicode="&#x201c;" horiz-adv-x="878" d="M104 1010q0 72 50 192q44 110 94 180l135 -6q-38 -81 -53 -190q-8 -109 -11 -176h-215zM514 1010q0 75 49 192q44 110 94 180l136 -6q-39 -84 -54 -190q-5 -66 -10 -176h-215z" />
<glyph unicode="&#x201d;" horiz-adv-x="878" d="M104 1016q39 84 54 190q5 66 10 176h215q0 -74 -49 -202q-46 -124 -94 -191zM514 1016q38 81 53 190q8 109 11 176h215q0 -72 -50 -202q-46 -124 -94 -191z" />
<glyph unicode="&#x201e;" horiz-adv-x="854" d="M104 -213q39 84 54 190q5 64 10 177h215q0 -75 -49 -203q-46 -124 -94 -191zM514 -213q38 81 53 190q8 107 11 177h215q0 -73 -50 -203q-46 -124 -94 -191z" />
<glyph unicode="&#x2022;" horiz-adv-x="577" d="M98 596q0 87 56 146t133 59q75 0 131 -59q55 -58 55 -146t-55 -147q-56 -60 -131 -60q-78 0 -133 58q-56 59 -56 149z" />
<glyph unicode="&#x2026;" horiz-adv-x="1843" d="M256 109q0 86 55 137q49 45 123 45t125 -48t51 -134q0 -85 -51 -134q-50 -49 -125 -49q-73 0 -125 49q-53 50 -53 134zM745 109q0 86 56 137q49 45 123 45t125 -48t51 -134q0 -85 -51 -134q-50 -49 -125 -49q-73 0 -125 49q-54 51 -54 134zM1235 109q0 86 55 137 q50 45 123 45q74 0 125 -48t51 -134q0 -85 -51 -134q-50 -49 -125 -49q-73 0 -125 49q-53 50 -53 134z" />
<glyph unicode="&#x202f;" horiz-adv-x="358" />
<glyph unicode="&#x2039;" horiz-adv-x="653" d="M100 592l299 332l209 -9l-254 -329l254 -328l-209 -8z" />
<glyph unicode="&#x203a;" horiz-adv-x="649" d="M61 258l252 328l-252 329l207 9l299 -332l-299 -342z" />
<glyph unicode="&#x205f;" horiz-adv-x="448" />
<glyph unicode="&#x2122;" horiz-adv-x="1312" d="M31 1208v107h508v-107h-183v-563h-131v563h-194zM590 645v674h160l182 -469l182 469h154v-674h-131v408l-156 -408h-111l-157 412v-412h-123z" />
<glyph unicode="&#xe000;" horiz-adv-x="1054" d="M0 0v1055h1055v-1055h-1055z" />
</font>
</defs>
</svg>
