<?xml version="1.0" standalone="no"?>
<!DOCTYPE svg PUBLIC "-//W3C//DTD SVG 1.1//EN" "http://www.w3.org/Graphics/SVG/1.1/DTD/svg11.dtd" >
<svg xmlns="http://www.w3.org/2000/svg">
<metadata></metadata>
<defs>
<font id="QuattrocentoSansRegular" horiz-adv-x="1327" >
<font-face units-per-em="2048" ascent="1638" descent="-410" />
<missing-glyph horiz-adv-x="495" />
<glyph horiz-adv-x="0" />
<glyph horiz-adv-x="2048" />
<glyph unicode=" "  horiz-adv-x="495" />
<glyph unicode="&#x09;" horiz-adv-x="495" />
<glyph unicode="&#xa0;" horiz-adv-x="495" />
<glyph unicode="!" horiz-adv-x="499" d="M152 1397h198l-53 -1090h-96zM156 72q0 39 28.5 68.5t67.5 29.5q37 0 66.5 -30t29.5 -68t-29.5 -66.5t-66.5 -28.5q-40 0 -68 28.5t-28 66.5z" />
<glyph unicode="&#x22;" horiz-adv-x="647" d="M102 1499h166l-49 -442h-74zM383 1499h166l-49 -442h-74z" />
<glyph unicode="#" horiz-adv-x="1261" d="M80 455l20 108h240l53 244h-252l21 106h254l90 426h131l-90 -426h258l90 426h131l-90 -426h248l-21 -106h-250l-53 -244h262l-20 -108h-264l-97 -455h-131l97 455h-258l-97 -455h-131l96 455h-237zM471 563h258l53 244h-258z" />
<glyph unicode="$" horiz-adv-x="1083" d="M88 88l43 150q87 -60 166 -91.5t195 -35.5v530q-74 25 -126.5 48.5t-101.5 56.5t-78.5 70.5t-47 89t-17.5 114.5q0 158 100.5 241.5t270.5 96.5v178h122v-176q175 -12 310 -76l-43 -158q-95 82 -267 97v-449q69 -23 116 -43t102.5 -55.5t89 -76t56.5 -102t23 -137.5 q0 -91 -30.5 -161.5t-85 -115t-122.5 -70t-149 -33.5v-177h-122v174q-224 8 -404 111zM270 1026q0 -79 49.5 -122t172.5 -87v406q-222 -19 -222 -197zM614 117q118 17 174 73t56 142q0 51 -18.5 93.5t-52.5 74t-72 54t-87 42.5v-479z" />
<glyph unicode="%" horiz-adv-x="1615" d="M90 977q0 166 81.5 275.5t219.5 109.5q92 0 161.5 -52.5t104.5 -137t35 -187.5q0 -102 -35 -187.5t-106.5 -140.5t-167.5 -55q-139 0 -216 107.5t-77 267.5zM205 989q0 -146 47 -220.5t133 -74.5q98 0 146.5 79.5t48.5 207.5q0 132 -49 210.5t-144 78.5q-182 0 -182 -281 zM254 37l969 1339h153l-968 -1339h-154zM930 350q0 166 81.5 275.5t219.5 109.5q92 0 161.5 -52.5t104.5 -137t35 -187.5q0 -102 -35 -187.5t-106.5 -140.5t-167.5 -55q-139 0 -216 107.5t-77 267.5zM1044 362q0 -145 47.5 -219.5t133.5 -74.5q98 0 146 79t48 207 q0 133 -48.5 211t-143.5 78q-183 0 -183 -281z" />
<glyph unicode="&#x26;" horiz-adv-x="1425" d="M102 360q0 119 72 230.5t203 167.5q-63 73 -94 143t-31 156q0 145 86 225t217 80q140 0 285 -90l-41 -146q-47 45 -113 74t-127 29q-73 0 -118.5 -45t-45.5 -137q0 -124 105 -232l467 -483q32 78 32 157q0 116 -67 222l-103 -9v97l514 75v-126l-274 -25q64 -119 64 -242 q0 -132 -70 -250l225 -231h-172l-131 133q-158 -158 -410 -158q-114 0 -205.5 32t-149 86t-88 122.5t-30.5 144.5zM258 379q0 -126 93 -197t243 -71q186 0 299 116l-426 437q-96 -32 -152.5 -109t-56.5 -176z" />
<glyph unicode="'" horiz-adv-x="366" d="M102 1499h166l-49 -442h-74z" />
<glyph unicode="(" horiz-adv-x="608" d="M86 670q0 258 108.5 493t305.5 416l78 -27q-165 -187 -236.5 -394.5t-71.5 -487.5q0 -82 4 -147t21.5 -163t48.5 -183.5t90 -189.5t141 -200l-75 -27q-196 176 -305 413.5t-109 496.5z" />
<glyph unicode=")" horiz-adv-x="608" d="M31 1552l78 27q197 -180 305 -415.5t108 -493.5q0 -260 -108.5 -497t-304.5 -413l-76 27q82 96 141 200t90 189.5t48.5 183.5t21.5 163t4 147q0 281 -71 488t-236 394z" />
<glyph unicode="*" horiz-adv-x="899" d="M127 985l262 117l-254 108l72 115l219 -168l-53 281h131l-21 -281l207 180l70 -116l-256 -117l274 -111l-67 -116l-228 165l35 -276h-127l31 278l-225 -172z" />
<glyph unicode="+" horiz-adv-x="1017" d="M104 436v107h351v331h106v-331h352v-107h-352v-352h-106v352h-351z" />
<glyph unicode="," horiz-adv-x="448" d="M117 -145l90 145h-62v154h162v-174l-160 -154z" />
<glyph unicode="-" horiz-adv-x="966" d="M137 436v107h692v-107h-692z" />
<glyph unicode="." horiz-adv-x="440" d="M125 72q0 39 27.5 68.5t66.5 29.5q38 0 68 -30t30 -68t-29.5 -66.5t-68.5 -28.5t-66.5 28t-27.5 67z" />
<glyph unicode="/" horiz-adv-x="876" d="M78 -117l569 1555h154l-570 -1555h-153z" />
<glyph unicode="0" horiz-adv-x="1329" d="M121 659q0 196 63.5 354.5t189 253.5t292.5 95q102 0 190 -36t152 -100t110 -150.5t69 -188.5t23 -213q0 -137 -37 -261.5t-106 -222.5t-177 -156.5t-239 -58.5q-128 0 -230.5 55t-167 150t-98.5 217t-34 262zM291 680q0 -278 95 -423.5t269 -145.5q98 0 173.5 43 t121.5 119.5t69 176t23 218.5q0 257 -97.5 408t-285.5 151q-97 0 -168.5 -39.5t-115 -113.5t-64 -172t-20.5 -222z" />
<glyph unicode="1" horiz-adv-x="649" d="M51 1126l395 226v-1352h-153v1077l-197 -94z" />
<glyph unicode="2" horiz-adv-x="1044" d="M98 0v143q63 81 160.5 184.5t175 184.5t152 170t116 177t41.5 169q0 90 -54.5 144.5t-176.5 54.5q-90 0 -195 -29.5t-163 -71.5l-37 136q79 44 190 72t209 28q178 0 287.5 -92t109.5 -240q0 -73 -30.5 -151.5t-76.5 -146t-116.5 -149t-133.5 -145t-146.5 -149 t-137.5 -146.5h656v-143h-830z" />
<glyph unicode="3" horiz-adv-x="1093" d="M74 102l41 138q159 -129 352 -129q165 0 252.5 77t87.5 224q0 254 -344 254h-55v116h63q127 0 198.5 65.5t71.5 178.5q0 201 -221 201q-90 0 -182.5 -29.5t-144.5 -71.5l-37 136q69 43 169 71.5t183 28.5q186 0 294.5 -91t108.5 -261q0 -82 -54.5 -156.5t-139.5 -118.5 q260 -88 260 -340q0 -86 -32 -161.5t-93 -133.5t-158.5 -91.5t-220.5 -33.5q-237 0 -399 127z" />
<glyph unicode="4" horiz-adv-x="1038" d="M61 430v143l572 779h164v-779h141v-143h-141v-430h-154v430h-582zM236 573h407v555z" />
<glyph unicode="5" horiz-adv-x="1101" d="M96 102l43 144q82 -66 167 -100.5t192 -34.5q157 0 244 77.5t87 223.5q0 124 -73 191t-248 67q-157 0 -291 -52l-59 31l75 713h695v-143h-566l-53 -437q154 33 262 33q191 0 308.5 -103t117.5 -286q0 -92 -31.5 -172t-91.5 -143t-157.5 -99.5t-220.5 -36.5 q-238 0 -400 127z" />
<glyph unicode="6" horiz-adv-x="1128" d="M127 612q0 119 14.5 222.5t51 202t92.5 168.5t145.5 112.5t204.5 42.5q84 0 176 -23t147 -75l-34 -136q-64 53 -140.5 77t-146.5 24q-82 0 -146.5 -29.5t-105 -77t-67.5 -113.5t-37.5 -133.5t-10.5 -142.5q0 -39 2 -59l7 -2q80 151 335 151q98 0 173.5 -29.5t119 -73 t71 -102t37 -109t9.5 -101.5q0 -62 -14.5 -121.5t-48.5 -116t-83 -99t-123 -68.5t-165 -26q-101 0 -179.5 29.5t-131.5 83.5t-87.5 134t-49.5 176t-15 214zM307 395q0 -135 75 -215t208 -80q127 0 200.5 82t73.5 226q0 59 -13.5 108.5t-42.5 91t-81 65t-123 23.5 q-148 0 -222.5 -82.5t-74.5 -218.5z" />
<glyph unicode="7" horiz-adv-x="931" d="M82 1219v143h829v-143q-136 -134 -268 -343t-217.5 -427.5t-85.5 -366.5q0 -57 2 -82h-178q-2 25 -2 80q0 124 53.5 281.5t140 311t185.5 293.5t200 253h-659z" />
<glyph unicode="8" horiz-adv-x="1140" d="M117 381q0 135 65.5 229t182.5 129v9q-77 28 -129 103.5t-52 182.5q0 149 102.5 238.5t282.5 89.5q178 0 281.5 -87.5t103.5 -234.5q0 -103 -50.5 -179.5t-129.5 -110.5v-9q117 -26 182.5 -122t65.5 -234q0 -87 -27.5 -160t-82 -129.5t-143 -88.5t-202.5 -32 q-119 0 -208 33.5t-140.5 91.5t-76.5 128.5t-25 152.5zM283 371q0 -130 73.5 -200.5t210.5 -70.5t211 70.5t74 200.5q0 60 -16 112.5t-49 95.5t-89.5 68t-130.5 25q-75 0 -131.5 -25t-88.5 -68.5t-48 -95.5t-16 -112zM348 1026q0 -104 58 -167.5t161 -63.5t161 63.5 t58 167.5q0 94 -51.5 150.5t-167.5 56.5q-114 0 -166.5 -55.5t-52.5 -151.5z" />
<glyph unicode="9" horiz-adv-x="1128" d="M104 930q0 62 15 121.5t48.5 116t82.5 98.5t123.5 68t165.5 26q126 0 216 -44.5t143.5 -130.5t78 -199.5t24.5 -262.5q0 -119 -14.5 -222.5t-50.5 -202t-92.5 -168.5t-145.5 -112.5t-204 -42.5q-84 0 -176.5 23t-147.5 76l35 135q121 -100 287 -100q82 0 146.5 29 t105 76.5t67 113.5t37 133.5t10.5 142.5q0 40 -2 60l-6 2q-80 -152 -336 -152q-98 0 -173.5 29.5t-119 73.5t-71 102.5t-37 109t-9.5 101.5zM264 928q0 -59 13.5 -109t42.5 -91.5t81 -65t123 -23.5q148 0 222.5 82.5t74.5 218.5q0 135 -74.5 215t-207.5 80 q-127 0 -201 -81.5t-74 -225.5z" />
<glyph unicode=":" horiz-adv-x="466" d="M137 72q0 39 27.5 68.5t66.5 29.5q38 0 68.5 -30t30.5 -68t-30 -66.5t-69 -28.5t-66.5 28t-27.5 67zM137 836q0 39 27.5 67.5t66.5 28.5t69 -29t30 -67q0 -39 -30 -68t-69 -29t-66.5 28.5t-27.5 68.5z" />
<glyph unicode=";" horiz-adv-x="487" d="M135 -145l90 145h-61v154h162v-174l-160 -154zM152 836q0 39 27.5 67.5t66.5 28.5q38 0 68 -29t30 -67q0 -39 -29.5 -68t-68.5 -29t-66.5 28.5t-27.5 68.5z" />
<glyph unicode="&#x3c;" horiz-adv-x="845" d="M84 487v11l584 397l37 -129l-404 -268v-11l406 -272l-37 -131z" />
<glyph unicode="=" horiz-adv-x="1007" d="M158 281v106h692v-106h-692zM158 592v106h692v-106h-692z" />
<glyph unicode="&#x3e;" horiz-adv-x="845" d="M139 215l406 272v11l-404 268l37 129l584 -397v-11l-586 -403z" />
<glyph unicode="?" horiz-adv-x="854" d="M86 1305q56 43 139 71.5t158 28.5q163 0 259.5 -91.5t96.5 -240.5q0 -68 -30.5 -137t-74.5 -132.5t-87.5 -132.5t-74.5 -163.5t-32 -198.5h-131q0 97 21 182.5t52.5 144t68 117t68 104.5t52.5 103t21 115q0 86 -54.5 141.5t-156.5 55.5q-66 0 -140.5 -30t-117.5 -73z M285 74q0 40 28 68t66 28q39 0 68.5 -28.5t29.5 -67.5q0 -38 -30 -67.5t-68 -29.5t-66 29t-28 68z" />
<glyph unicode="@" horiz-adv-x="1476" d="M113 369q0 80 19 164t56 169t97.5 160t138 133.5t183.5 92.5t227 34q112 0 205.5 -29.5t157.5 -78.5t108.5 -114.5t65 -137t20.5 -146.5q0 -122 -51.5 -227.5t-148.5 -171t-218 -65.5q-92 0 -121 37t-29 112q-34 -69 -86.5 -110t-105.5 -41q-67 0 -119.5 65.5 t-52.5 179.5q0 117 60 211t148.5 142.5t182.5 48.5q55 0 112 -17.5t89 -50.5l-76 -364q-8 -62 -8 -72q0 -30 13 -43.5t46 -13.5q103 0 171.5 113t68.5 259q0 78 -25.5 150.5t-75.5 133.5t-136.5 97.5t-197.5 36.5q-112 0 -209 -38t-166 -102.5t-118 -149t-72.5 -178 t-23.5 -189.5q0 -99 26 -179.5t71.5 -135t108.5 -92t134 -54.5t151 -17q103 0 202 31.5t152.5 64.5t92.5 68v-102q-54 -52 -186.5 -106t-280.5 -54q-163 0 -299.5 70t-218.5 203t-82 303zM594 369q0 -65 18 -98t47 -33q51 0 112 76t79 155l49 248q-12 12 -51 12 q-64 0 -115 -36t-80 -92.5t-44 -116t-15 -115.5z" />
<glyph unicode="A" d="M16 0l541 1352h186l594 -1352h-174l-198 455h-605l-180 -455h-164zM418 598h483l-254 582z" />
<glyph unicode="B" horiz-adv-x="1144" d="M201 0v1352q150 10 315 10q186 0 295 -91t109 -261q0 -171 -140 -262q125 -42 193.5 -132t68.5 -221q0 -87 -31.5 -162t-92.5 -133t-158.5 -91.5t-220.5 -33.5q-155 0 -338 25zM354 117q79 -6 178 -6q165 0 252.5 77t87.5 224q0 254 -344 254q-108 0 -174 -4v-545z M354 784q39 -2 125 -2q127 0 199 65.5t72 178.5q0 201 -222 201q-68 0 -174 -4v-439z" />
<glyph unicode="C" horiz-adv-x="1314" d="M117 662q0 147 43.5 273t126.5 222t213 150.5t293 54.5q109 0 220 -24t191 -64l-43 -148q-152 101 -381 101q-134 0 -230.5 -39t-153.5 -113t-83 -172t-26 -225q0 -280 123 -423.5t366 -143.5q124 0 233.5 35.5t178.5 91.5l41 -138q-206 -125 -459 -125q-130 0 -238.5 36 t-184.5 99.5t-128.5 150.5t-77 188t-24.5 213z" />
<glyph unicode="D" horiz-adv-x="1441" d="M203 0v1352q347 10 446 10q143 0 263.5 -40.5t205.5 -113.5q104 -94 155.5 -235t51.5 -311q0 -112 -24.5 -213t-77 -188t-128.5 -150.5t-184.5 -99.5t-238.5 -36q-213 0 -469 25zM356 123q129 -12 310 -12q243 0 366 143.5t123 423.5q0 127 -26 225t-83 172t-153.5 113 t-230.5 39q-177 0 -306 -6v-1098z" />
<glyph unicode="E" horiz-adv-x="1079" d="M203 0v1352h741v-144h-588v-420h451v-143h-451v-502h629v-143h-782z" />
<glyph unicode="F" horiz-adv-x="995" d="M203 0v1352h731v-144h-578v-420h428v-143h-428v-645h-153z" />
<glyph unicode="G" horiz-adv-x="1376" d="M117 662q0 147 43.5 273t126.5 222t213 150.5t293 54.5q238 0 432 -88l-43 -148q-68 45 -173 73t-229 28q-134 0 -230.5 -39t-153.5 -113t-83 -172t-26 -225q0 -280 123 -423.5t366 -143.5q171 0 314 65v381h153v-444q-204 -138 -473 -138q-130 0 -238.5 36t-184.5 99.5 t-128.5 150.5t-77 188t-24.5 213z" />
<glyph unicode="H" horiz-adv-x="1441" d="M203 0v1352h153v-584h729v584h154v-1352h-154v625h-729v-625h-153z" />
<glyph unicode="I" horiz-adv-x="559" d="M203 0v1352h153v-1352h-153z" />
<glyph unicode="J" horiz-adv-x="561" d="M-27 -207q45 0 80.5 14t59.5 35.5t41.5 56t27 68t15 79t7 81.5t1.5 82v1143h153v-1145q0 -149 -37 -265t-119 -188.5t-200 -72.5z" />
<glyph unicode="K" horiz-adv-x="1218" d="M203 0v1352h153v-639q98 66 209 174q220 216 391 465h177q-91 -134 -219.5 -285t-243.5 -266q-30 -30 -80 -76l627 -725h-191l-549 627l-121 -92v-535h-153z" />
<glyph unicode="L" horiz-adv-x="997" d="M203 0v1352h153v-1209h605v-143h-758z" />
<glyph unicode="M" horiz-adv-x="1726" d="M203 0v1352h194l471 -1164l471 1164h185v-1352h-154v1022l-414 -1022h-184l-416 1024v-1024h-153z" />
<glyph unicode="N" horiz-adv-x="1441" d="M203 0v1352h174l708 -1112v1112h154v-1352h-174l-709 1110v-1110h-153z" />
<glyph unicode="O" horiz-adv-x="1548" d="M115 659q0 147 44.5 274.5t126.5 223t208 150.5t280 55q155 0 282 -55.5t208.5 -150.5t125.5 -218.5t44 -263.5q0 -109 -26.5 -211t-82 -191t-134 -155t-189.5 -104t-242 -38q-158 0 -283 55t-203 150t-118.5 217t-40.5 262zM285 680q0 -280 123 -424.5t356 -144.5 q130 0 228 43t157 119.5t88 175.5t29 219q0 259 -124.5 409t-373.5 150q-128 0 -222.5 -39.5t-150.5 -113.5t-83 -172t-27 -222z" />
<glyph unicode="P" horiz-adv-x="1071" d="M203 0v1352q240 10 305 10q226 0 358.5 -113t132.5 -321q0 -87 -29 -162t-85.5 -133t-147.5 -91.5t-207 -33.5q-98 0 -174 6v-514h-153zM356 649q73 -6 168 -6q150 0 227.5 76.5t77.5 224.5q0 283 -309 283q-66 0 -164 -4v-574z" />
<glyph unicode="Q" horiz-adv-x="1552" d="M117 659q0 147 44.5 274.5t126.5 223t208 150.5t280 55q155 0 282 -55.5t208.5 -150.5t125.5 -218.5t44 -263.5q0 -106 -25 -205t-77 -186t-126 -153t-178 -106.5t-227 -46.5q76 -9 178 -48.5t202.5 -73t188.5 -33.5q83 0 174 39l-39 -131q-62 -33 -151 -33 q-78 0 -168.5 28.5t-158.5 62.5t-149 62.5t-141 28.5q-57 0 -125.5 -20.5t-126.5 -63.5l-28 96q103 76 239 86q-115 8 -210.5 48.5t-163.5 104t-115 147.5t-69.5 180t-22.5 202zM287 674q0 -276 124 -419.5t359 -143.5q128 0 225.5 43t156 120t87.5 177.5t29 222.5 q0 124 -30 224t-90 174.5t-157 114.5t-225 40q-127 0 -220.5 -39.5t-149.5 -114.5t-82.5 -174t-26.5 -225z" />
<glyph unicode="R" horiz-adv-x="1202" d="M203 0v1352q240 10 305 10q226 0 358.5 -101.5t132.5 -287.5q0 -136 -76.5 -237.5t-224.5 -139.5l519 -596h-191l-506 578q-90 0 -164 6v-584h-153zM356 717q49 -4 168 -4q150 0 227.5 70.5t77.5 205.5q0 238 -309 238q-66 0 -164 -4v-506z" />
<glyph unicode="S" horiz-adv-x="1132" d="M102 88l43 150q92 -64 177 -95.5t215 -31.5q177 0 259.5 59.5t82.5 161.5q0 38 -12 72t-29.5 59t-49 49t-57.5 39.5t-68.5 33t-69 26.5t-71.5 24q-97 32 -161.5 63t-119 75.5t-80.5 105.5t-26 141q0 89 33 156t93 107t137.5 59.5t172.5 19.5q105 0 208.5 -22t178.5 -56 l-43 -158q-61 52 -159 76.5t-193 24.5q-133 0 -205.5 -49.5t-72.5 -151.5q0 -20 2.5 -37.5t10.5 -33t15 -28t23.5 -25t29 -22t38 -21t43 -19.5t53 -20.5t59 -20.5t68.5 -23q51 -17 87.5 -30.5t82.5 -35t77.5 -43.5t64.5 -53.5t52.5 -67.5t32 -83.5t12.5 -102.5 q0 -82 -26.5 -148t-72 -109.5t-108.5 -72.5t-132.5 -42t-147.5 -13q-241 0 -447 113z" />
<glyph unicode="T" horiz-adv-x="1095" d="M39 1208v144h1018v-144h-432v-1208h-154v1208h-432z" />
<glyph unicode="U" horiz-adv-x="1404" d="M186 455v897h154v-828q0 -413 367 -413q368 0 368 413v828h144v-897q0 -102 -31.5 -188t-93.5 -151.5t-161 -102t-226 -36.5q-139 0 -242 36.5t-163 102.5t-88 150.5t-28 188.5z" />
<glyph unicode="V" d="M-10 1352h174l514 -1180l469 1180h164l-537 -1352h-194z" />
<glyph unicode="W" horiz-adv-x="2217" d="M0 1352h174l455 -1157l395 1157h174l420 -1153l412 1153h163l-481 -1352h-194l-410 1118l-381 -1118h-195z" />
<glyph unicode="X" d="M33 0l536 698l-506 654h183l422 -547l422 547h176l-510 -662l536 -690h-182l-453 584l-448 -584h-176z" />
<glyph unicode="Y" horiz-adv-x="1161" d="M-20 1352h182l428 -650l414 650h178l-523 -797v-555h-153v547z" />
<glyph unicode="Z" horiz-adv-x="1138" d="M90 0v143l754 1065h-723v144h897v-144l-754 -1065h785v-143h-959z" />
<glyph unicode="[" horiz-adv-x="557" d="M168 -195v1729h328v-86h-195v-1557h195v-86h-328z" />
<glyph unicode="\" horiz-adv-x="872" d="M76 1438h149l570 -1555h-150z" />
<glyph unicode="]" horiz-adv-x="557" d="M61 -109h195v1557h-195v86h328v-1729h-328v86z" />
<glyph unicode="^" horiz-adv-x="712" d="M117 1161l6 15l225 202h17l225 -202l6 -15l-12 -39l-15 -6l-213 125l-213 -125l-14 6z" />
<glyph unicode="_" horiz-adv-x="956" d="M35 0h887v-106h-887v106z" />
<glyph unicode="`" horiz-adv-x="448" d="M0 1321q0 30 19 50.5t53 21.5l370 -207l7 -15l-13 -41l-16 -6l-412 158q-8 19 -8 39z" />
<glyph unicode="a" horiz-adv-x="1021" d="M84 252q0 65 21 117.5t55 88t82.5 62t96.5 41t105.5 23.5t101.5 11.5t91 2.5h92v25q0 73 -21 115.5t-63 72.5q-35 23 -75 32t-105 9q-142 0 -279 -82l-32 123q139 80 327 80q167 0 262 -60q129 -81 129 -272v-641h-112l-17 168h-8q-51 -79 -159.5 -136t-221.5 -57 q-129 0 -199.5 77t-70.5 200zM236 260q0 -78 43 -121t118 -43q88 0 182 55.5t150 151.5v191h-18q-54 0 -96.5 -1.5t-94 -7.5t-90 -16t-76.5 -27.5t-63 -41.5t-40 -60t-15 -80z" />
<glyph unicode="b" horiz-adv-x="1181" d="M162 0v1516h143v-750q27 90 119 148.5t221 58.5q106 0 190.5 -40.5t137.5 -110.5t80.5 -160t27.5 -193q0 -99 -26 -187t-75.5 -157t-130 -109.5t-181.5 -40.5q-122 0 -218 55t-151 138h-8l-17 -168h-112zM305 303q58 -97 152 -152t194 -55q75 0 131 32t87 86t46 116.5 t15 132.5q0 174 -82.5 281.5t-222.5 107.5q-109 0 -196.5 -66.5t-123.5 -181.5v-301z" />
<glyph unicode="c" horiz-adv-x="1021" d="M98 479q0 101 29 188t86 156.5t153 109.5t220 40q97 0 192 -22.5t152 -59.5l-35 -121q-47 37 -136.5 63.5t-174.5 26.5q-86 0 -152 -30t-105 -82t-58 -116.5t-19 -139.5q0 -170 92.5 -287t255.5 -117q81 0 168.5 34.5t144.5 88.5l29 -133q-65 -42 -165 -72.5t-204 -30.5 q-115 0 -207 40.5t-149 110.5t-87 160t-30 193z" />
<glyph unicode="d" horiz-adv-x="1181" d="M100 469q0 139 47.5 251t148.5 182.5t241 70.5q132 0 222.5 -58t117.5 -149v750h143v-1516h-113l-16 168h-8q-55 -83 -151 -138t-218 -55q-101 0 -181.5 40.5t-130.5 109.5t-76 157t-26 187zM252 463q0 -70 14.5 -132t45.5 -116.5t87 -86.5t131 -32q101 0 196 55t151 152 v301q-36 115 -123.5 181.5t-196.5 66.5q-140 0 -222.5 -107.5t-82.5 -281.5z" />
<glyph unicode="e" horiz-adv-x="1060" d="M96 471q0 137 55 249.5t167.5 182.5t263.5 70q180 0 278 -91t98 -257q0 -89 -18 -123h-690v-21q0 -108 35 -196t112.5 -144.5t186.5 -56.5q160 0 331 119l25 -117q-178 -111 -373 -111q-111 0 -201.5 40t-148.5 109t-89.5 158t-31.5 189zM264 610h559q2 12 2 37 q0 99 -72.5 155t-177.5 56q-127 0 -205 -67.5t-106 -180.5z" />
<glyph unicode="f" horiz-adv-x="612" d="M53 846v76l158 18q0 354 84 485q68 101 215 101q111 0 178 -35l-35 -121q-3 0 -78.5 24.5t-115.5 24.5q-42 0 -64.5 -30t-32.5 -102.5t-10 -209.5q0 -44 1 -79t1 -56h221v-96h-221v-846h-143v846h-158z" />
<glyph unicode="g" horiz-adv-x="1042" d="M72 -236q0 80 58 154.5t138 104.5v8q-84 40 -84 106q0 68 111 146v8q-92 36 -138 119.5t-46 187.5q0 162 105 268.5t280 106.5q119 0 196 -41q185 3 301 37l11 -8l-15 -113l-10 -10l-186 8l-2 -6q50 -40 76 -109t26 -139q0 -142 -104 -240t-285 -98q-16 0 -39 1t-31 1 q-40 -13 -63 -37t-23 -43q0 -46 117 -57l199 -21q141 -14 231 -85t90 -189q0 -63 -27 -125.5t-79 -104.5q-56 -46 -151 -74t-214 -28q-204 0 -323 78.5t-119 193.5zM217 -211q0 -78 83 -124t224 -46t229.5 47.5t88.5 136.5t-96.5 131t-307.5 56q-89 0 -155 -63.5t-66 -137.5 zM256 610q0 -64 27 -120.5t85 -95t136 -38.5q110 0 174.5 69t64.5 167q0 105 -68 189.5t-183 84.5q-75 0 -130.5 -40t-80.5 -97t-25 -119z" />
<glyph unicode="h" horiz-adv-x="1116" d="M162 0v1516h143v-750q27 90 118.5 148.5t223.5 58.5q143 0 231.5 -79t88.5 -253v-641h-144v623q0 119 -52 174t-144 55q-106 0 -196 -66.5t-126 -181.5v-604h-143z" />
<glyph unicode="i" horiz-adv-x="466" d="M131 1286q0 42 30 74.5t72 32.5q41 0 74 -33t33 -74q0 -42 -32.5 -72t-74.5 -30q-43 0 -72.5 29.5t-29.5 72.5zM162 0v942h143v-942h-143z" />
<glyph unicode="j" horiz-adv-x="466" d="M-86 -403q14 -7 45 -7q45 0 79.5 17.5t56 50.5t35.5 70.5t20.5 87.5t9 90t2.5 90v946h143v-948q0 -144 -34 -260t-106 -189t-173 -73q-33 0 -45 6zM131 1286q0 42 30 74.5t72 32.5q41 0 74 -33t33 -74q0 -42 -32.5 -72t-74.5 -30q-43 0 -72.5 29.5t-29.5 72.5z" />
<glyph unicode="k" horiz-adv-x="974" d="M162 0v1516h143v-971l414 397h164l-336 -332l401 -610h-164l-338 512l-141 -141v-371h-143z" />
<glyph unicode="l" horiz-adv-x="491" d="M174 0v1516h143v-1516h-143z" />
<glyph unicode="m" horiz-adv-x="1761" d="M162 0v942h112l17 -176h8q27 90 115 148.5t217 58.5q123 0 205.5 -55t105.5 -152q46 92 132 149.5t216 57.5q67 0 122.5 -17.5t101.5 -55t72 -103.5t26 -156v-641h-144v623q0 118 -54 173.5t-146 55.5q-105 0 -189.5 -66t-120.5 -182v-604h-143v623q0 118 -54.5 173.5 t-146.5 55.5q-105 0 -189 -66t-120 -182v-604h-143z" />
<glyph unicode="n" horiz-adv-x="1116" d="M162 0v942h112l17 -176h8q27 89 121.5 148t226.5 59q143 0 231.5 -79t88.5 -253v-641h-144v623q0 119 -52 174t-144 55q-106 0 -196 -66.5t-126 -181.5v-604h-143z" />
<glyph unicode="o" horiz-adv-x="1148" d="M98 475q0 102 29.5 190.5t86 158t149 109.5t210.5 40q97 0 177 -27.5t135 -74.5t93 -112t55.5 -139t17.5 -155q0 -102 -28.5 -189t-84 -155t-147 -107t-209.5 -39q-121 0 -215 40.5t-152 110.5t-87.5 158.5t-29.5 190.5zM250 481q0 -80 20 -150t59 -126t103.5 -88.5 t147.5 -32.5q106 0 180 53.5t106.5 137t32.5 188.5q0 80 -20 149.5t-59.5 125t-104.5 88t-148 32.5q-106 0 -179.5 -53t-105.5 -135.5t-32 -188.5z" />
<glyph unicode="p" horiz-adv-x="1181" d="M162 -532v1474h112l17 -176h8q57 86 153 146.5t216 60.5q101 0 181.5 -40.5t130 -109.5t75.5 -157t26 -187q0 -103 -27.5 -193t-80.5 -160t-137.5 -110.5t-190.5 -40.5q-132 0 -222.5 58t-117.5 149v-714h-143zM305 344q36 -113 132 -180.5t206 -67.5q137 0 212 105 t75 268q0 104 -30 188t-99.5 139.5t-169.5 55.5q-99 0 -184 -54t-142 -153v-301z" />
<glyph unicode="q" horiz-adv-x="1181" d="M100 477q0 100 26.5 188.5t76 157.5t128.5 109.5t177 40.5q126 0 221 -59.5t154 -147.5h8l16 176h113v-1474h-143v714q-27 -91 -117.5 -149t-222.5 -58q-106 0 -190.5 40.5t-137.5 110.5t-81 159.5t-28 191.5zM252 469q0 -163 75 -268t212 -105q110 0 206 67.5t132 180.5 v301q-57 99 -142 153t-184 54q-100 0 -169.5 -55.5t-99.5 -139.5t-30 -188z" />
<glyph unicode="r" horiz-adv-x="737" d="M162 0v942h112l17 -207h8q32 105 100 171.5t170 66.5q39 0 82.5 -13.5t61.5 -33.5l-43 -135q-69 40 -129 40q-79 0 -144.5 -81.5t-91.5 -198.5v-551h-143z" />
<glyph unicode="s" horiz-adv-x="907" d="M98 78l37 133q69 -63 159 -96t167 -33q95 0 152 48t57 108q0 19 -1 32.5t-9 37t-22 40t-43 33.5t-69 27l-196 49q-224 57 -224 241q0 124 94 199.5t249 75.5q84 0 175.5 -22t151.5 -62l-39 -123q-45 37 -127.5 64.5t-171.5 27.5q-186 0 -186 -133q0 -115 156 -150 l145 -32q66 -15 115.5 -39t77.5 -50.5t45 -59t22.5 -59.5t5.5 -56q0 -131 -102 -217.5t-271 -86.5q-100 0 -193 30t-155 73z" />
<glyph unicode="t" horiz-adv-x="655" d="M49 846v76l162 20l31 285h108v-285h221v-96h-221v-653q0 -63 18 -85t62 -22q83 0 150 49l28 -108q-112 -50 -215 -50q-50 0 -86 13t-55 31.5t-29.5 49.5t-13 56t-2.5 61v658h-158z" />
<glyph unicode="u" horiz-adv-x="1116" d="M150 301v641h143v-623q0 -223 196 -223q107 0 197 64t125 178v604h143v-942h-112l-17 176h-8q-27 -89 -121 -145t-227 -56q-69 0 -124 16.5t-100 53t-70 101.5t-25 155z" />
<glyph unicode="v" horiz-adv-x="1067" d="M14 942h156l367 -807l366 807h150l-428 -942h-183z" />
<glyph unicode="w" horiz-adv-x="1677" d="M27 942h151l295 -803l295 803h152l276 -803l313 803h146l-367 -942h-194l-256 737l-271 -737h-194z" />
<glyph unicode="x" horiz-adv-x="1058" d="M37 0l405 481l-385 461h174l299 -358l297 358h174l-387 -457l408 -485h-174l-322 383l-315 -383h-174z" />
<glyph unicode="y" horiz-adv-x="1062" d="M6 942h170l375 -784l336 784h162l-433 -950q-83 -182 -137 -266q-159 -250 -358 -250q-25 0 -43 6l-27 135q24 -6 43 -6q90 0 148 41q132 93 235 379z" />
<glyph unicode="z" horiz-adv-x="862" d="M90 0v123l498 698h-477v121h643v-119l-502 -702h522v-121h-684z" />
<glyph unicode="{" horiz-adv-x="559" d="M63 639v61q30 1 54 12t39.5 26.5t26.5 40.5t16 45t8 51t3.5 48.5t0.5 45.5q0 44 -2 158t-2 139q0 71 10 119t38 89.5t84 61.5t142 20l4 -43q-44 -4 -71.5 -21.5t-40.5 -48.5t-17 -61.5t-4 -76.5q0 -23 2 -138.5t2 -154.5q0 -92 -15.5 -158t-59.5 -116.5t-117 -67.5 q73 -17 117 -67.5t59.5 -116.5t15.5 -158q0 -39 -2 -154.5t-2 -138.5q0 -36 2 -61.5t10 -54t22 -46t39 -31t60 -16.5l-4 -43q-69 0 -119 14.5t-79.5 38t-47 62.5t-23 79.5t-5.5 96.5q0 27 2 144.5t2 158.5q0 28 -0.5 46.5t-3.5 48t-8.5 49.5t-16.5 43.5t-26 38t-39 25 t-54 11.5z" />
<glyph unicode="|" horiz-adv-x="458" d="M166 -233v1806h127v-1806h-127z" />
<glyph unicode="}" horiz-adv-x="559" d="M74 -174q35 3 60 16.5t39 31t22 46t10 54t2 61.5q0 23 -2 138.5t-2 154.5q0 92 15.5 158t59.5 116.5t117 67.5q-73 17 -117 67.5t-59.5 116.5t-15.5 158q0 39 2 154.5t2 138.5q0 46 -4 76.5t-17 61.5t-40.5 48.5t-71.5 21.5l4 43q86 0 142 -20t84 -61.5t38 -89.5t10 -119 q0 -25 -2 -139t-2 -158q0 -28 0.5 -45.5t3.5 -48.5t8 -51t16 -45t26.5 -40.5t39.5 -26.5t54 -12v-61q-30 -1 -54 -11.5t-39 -25t-26 -38t-16.5 -43.5t-8.5 -49.5t-3.5 -48t-0.5 -46.5q0 -41 2 -158.5t2 -144.5q0 -56 -5.5 -96.5t-23 -79.5t-47 -62.5t-79.5 -38t-119 -14.5z " />
<glyph unicode="~" horiz-adv-x="987" d="M139 414q0 41 54.5 99t132.5 58q29 0 164.5 -9t201.5 -9q95 0 133 53l25 -16q0 -7 -6 -23.5t-20.5 -40t-34 -44.5t-51.5 -35.5t-68 -14.5q-25 0 -184.5 9.5t-206.5 9.5t-68 -11.5t-45 -40.5z" />
<glyph unicode="&#xa1;" horiz-adv-x="454" d="M129 -446l49 1089h96l54 -1089h-199zM133 879q0 38 28 66t68 28q37 0 67 -28t30 -66t-30 -68.5t-67 -30.5q-39 0 -67.5 30t-28.5 69z" />
<glyph unicode="&#xa2;" horiz-adv-x="1021" d="M78 449q0 89 25.5 166.5t76 140.5t135 103.5t193.5 49.5v273h123v-275q178 -13 278 -78l-35 -120q-39 28 -105.5 51.5t-137.5 32.5v-703q72 11 142.5 43.5t117.5 77.5l29 -133q-120 -78 -289 -98v-261h-123v258q-105 7 -188.5 47.5t-135.5 105.5t-79 146t-27 173z M229 461q0 -139 73.5 -242t205.5 -125v701q-141 -18 -210 -110.5t-69 -223.5z" />
<glyph unicode="&#xa3;" horiz-adv-x="1165" d="M72 33q288 126 288 479v31h-200v106h192q-5 43 -15.5 118t-17 130.5t-6.5 97.5q0 96 34.5 169.5t92.5 115t124 62t138 20.5q89 0 176.5 -29t143.5 -71l-37 -136q-41 42 -119.5 71.5t-158.5 29.5q-209 0 -209 -228q0 -49 14 -169t18 -181h285v-106h-280 q-3 -110 -45.5 -225.5t-120.5 -206.5l4 -7q78 -4 253 -45t269 -41q91 0 182 39l-39 -149q-48 -25 -83.5 -33t-82.5 -8q-66 0 -145.5 21t-141.5 46.5t-144 46.5t-152 21q-111 0 -189 -65z" />
<glyph unicode="&#xa4;" horiz-adv-x="1189" d="M113 883l61 61l164 -162q123 90 254 90q138 0 252 -90l166 160l61 -59l-162 -164q90 -120 90 -252q0 -130 -88 -248l164 -164l-63 -61l-166 162q-123 -93 -250 -93q-121 0 -254 93l-164 -162l-59 61l160 164q-91 113 -91 252q0 133 93 248zM291 469q0 -127 88.5 -216 t216.5 -89q126 0 213.5 88.5t87.5 216.5q0 127 -88 216t-215 89q-125 0 -214 -88.5t-89 -216.5z" />
<glyph unicode="&#xa5;" horiz-adv-x="1331" d="M63 1352h183l428 -650l413 650h179l-404 -615h225v-106h-294l-50 -76v-35h344v-102h-344v-418h-153v418h-342v98l342 2v29l-55 84h-287v98h221z" />
<glyph unicode="&#xa6;" horiz-adv-x="466" d="M170 -233v794h127v-794h-127zM170 778v795h127v-795h-127z" />
<glyph unicode="&#xa7;" horiz-adv-x="897" d="M92 762q0 76 36 147.5t95 116.5q-24 55 -24 127q0 59 18.5 109t48.5 84.5t69.5 58.5t81.5 35.5t83 11.5q58 0 123.5 -22.5t111.5 -55.5l-51 -137q-36 40 -88 63t-104 23q-65 0 -111.5 -39t-46.5 -108q0 -48 26 -92.5t67.5 -81t92 -72.5t100.5 -75t91.5 -80.5t67.5 -97 t26 -116.5q0 -76 -36 -148.5t-95 -115.5q24 -67 24 -127q0 -59 -18.5 -109t-48.5 -84.5t-69.5 -58.5t-81.5 -35.5t-83 -11.5q-58 0 -123.5 22.5t-111.5 55.5l51 137q36 -40 88.5 -63t104.5 -23q65 0 111 39t46 108q0 48 -26 92.5t-67.5 81t-92 72.5t-100.5 75t-91.5 80.5 t-67.5 97t-26 116.5zM219 811q0 -50 28.5 -95.5t76.5 -84t99 -74.5t108.5 -83.5t93.5 -94.5q53 50 53 133q0 42 -21 81t-54.5 69.5t-78 65t-87.5 64.5t-89 70t-76 80q-53 -50 -53 -131z" />
<glyph unicode="&#xa8;" horiz-adv-x="450" d="M0 1292q0 37 24.5 64.5t59.5 27.5q34 0 60 -27.5t26 -64.5q0 -38 -26 -64t-60 -26q-35 0 -59.5 26t-24.5 64zM281 1292q0 37 24.5 64.5t59.5 27.5q34 0 60 -27.5t26 -64.5q0 -38 -26 -64t-60 -26q-35 0 -59.5 26t-24.5 64z" />
<glyph unicode="&#xa9;" horiz-adv-x="1476" d="M117 725q0 166 82.5 307.5t225.5 224t312 82.5t312.5 -82.5t227 -224t83.5 -307.5q0 -170 -84 -312.5t-229.5 -224.5t-319.5 -82q-123 0 -236 49.5t-195 133t-130.5 198t-48.5 238.5zM213 725q0 -224 150.5 -379.5t365.5 -155.5q150 0 273 70t192.5 193t69.5 272 q0 145 -69.5 267t-191 192.5t-266.5 70.5t-265.5 -70.5t-189.5 -192.5t-69 -267zM391 729q0 71 20 132t59.5 109.5t106.5 76.5t154 28q69 0 136 -15.5t106 -41.5l-25 -105q-33 25 -95.5 43.5t-121.5 18.5q-56 0 -98.5 -19.5t-67 -53t-37 -75t-12.5 -90.5q0 -110 59.5 -185 t163.5 -75q59 0 120.5 24t101.5 62l18 -114q-44 -29 -114.5 -50.5t-143.5 -21.5q-158 0 -244 101t-86 251z" />
<glyph unicode="&#xaa;" horiz-adv-x="733" d="M106 905q0 54 24 94t59 62t83 35.5t86.5 17.5t79.5 4h56v15q0 67 -42 102t-116 35q-91 0 -168 -49l-21 73q90 54 197 54q106 0 178 -50t72 -155v-387h-82l-10 100h-8q-31 -48 -94.5 -82.5t-131.5 -34.5q-77 0 -119.5 46.5t-42.5 119.5zM205 911q0 -88 90 -88 q52 0 108.5 34.5t90.5 92.5v99h-11q-39 0 -67.5 -1.5t-63 -6t-59 -14t-45.5 -24t-32 -38t-11 -54.5z" />
<glyph unicode="&#xab;" horiz-adv-x="952" d="M76 487v11l274 362h162l-295 -362v-11l295 -362h-164zM408 487v11l274 362h162l-295 -362v-11l295 -362h-164z" />
<glyph unicode="&#xac;" horiz-adv-x="1300" d="M160 592v106h983v-458h-109v352h-874z" />
<glyph unicode="&#xad;" horiz-adv-x="966" d="M137 436l4 107h688l-4 -107h-688z" />
<glyph unicode="&#xae;" horiz-adv-x="1476" d="M117 725q0 166 82.5 307.5t225.5 224t312 82.5t312.5 -82.5t227 -224t83.5 -307.5q0 -170 -84 -312.5t-229.5 -224.5t-319.5 -82q-123 0 -236 49.5t-195 133t-130.5 198t-48.5 238.5zM213 725q0 -224 150.5 -379.5t365.5 -155.5q150 0 273 70t192.5 193t69.5 272 q0 145 -69.5 267t-191 192.5t-266.5 70.5t-265.5 -70.5t-189.5 -192.5t-69 -267zM537 412v673q118 5 170 5q122 0 186.5 -42.5t64.5 -148.5q0 -64 -42.5 -114t-116.5 -70l260 -303h-109l-256 297h-63v-297h-94zM631 782q25 -2 82 -2q68 0 106.5 33t38.5 94q0 105 -147 105 q-15 0 -41.5 -1t-38.5 -1v-228z" />
<glyph unicode="&#xb0;" horiz-adv-x="700" d="M100 1112q0 101 66 168.5t182 67.5q119 0 185.5 -69t66.5 -173q0 -97 -64.5 -162t-187.5 -65t-185.5 67t-62.5 166zM197 1114q0 -69 39.5 -113.5t111.5 -44.5q74 0 112 40.5t38 109.5t-39 113.5t-113 44.5q-75 0 -112 -42t-37 -108z" />
<glyph unicode="&#xb1;" horiz-adv-x="993" d="M170 143v109h653v-109h-653zM170 610v109h272v213h107v-213h274v-109h-274v-235h-107v235h-272z" />
<glyph unicode="&#xb2;" horiz-adv-x="722" d="M125 612v86q39 50 93.5 104t96 93t80.5 81.5t60.5 88t21.5 94.5q0 57 -25.5 88t-97.5 31q-52 0 -105.5 -31t-90.5 -78l-23 91q111 100 221 100q105 0 164.5 -54.5t59.5 -144.5q0 -64 -35 -126t-78.5 -105t-118 -112.5t-119.5 -119.5h359v-86h-463z" />
<glyph unicode="&#xb3;" horiz-adv-x="700" d="M98 690l25 82q35 -29 54.5 -42.5t52 -24.5t71.5 -11q98 0 144.5 39.5t46.5 118.5q0 66 -43 99.5t-150 33.5h-25v70h31q74 0 111 32.5t37 92.5q0 49 -25 74.5t-94 25.5q-91 0 -164 -59l-23 79q97 62 179 62q109 0 169 -50t60 -143q0 -42 -33 -80t-84 -63q156 -47 156 -184 q0 -101 -72.5 -165.5t-216.5 -64.5q-66 0 -111 18.5t-96 59.5z" />
<glyph unicode="&#xb4;" horiz-adv-x="448" d="M0 1171l6 15l369 207q34 -1 54 -21.5t20 -50.5q0 -18 -9 -39l-413 -158l-15 6z" />
<glyph unicode="&#xb5;" horiz-adv-x="1177" d="M80 -227q81 155 118.5 271.5t37.5 256.5v641h143v-623q0 -223 196 -223q107 0 197 64t125 178v604h143v-942h-112l-17 176h-8q-27 -89 -121 -145t-227 -56q-147 0 -227 72l-6 -27q-37 -152 -111 -307z" />
<glyph unicode="&#xb6;" horiz-adv-x="1095" d="M74 928q0 208 132.5 321t358.5 113q33 0 326 -10v-1528h-92v1403h-111v-1403h-102v684h-43q-116 0 -207 33.5t-147.5 91.5t-85.5 133t-29 162z" />
<glyph unicode="&#xb7;" horiz-adv-x="468" d="M139 498q0 39 29 68.5t68 29.5q37 0 66.5 -30t29.5 -68t-29.5 -66.5t-66.5 -28.5q-40 0 -68.5 28.5t-28.5 66.5z" />
<glyph unicode="&#xb8;" horiz-adv-x="413" d="M0 -365l27 48h14q69 -25 141 -25q111 0 111 82q0 94 -107 94q-47 0 -98 -14l-18 22l104 158h70l-62 -104q36 8 70 8q70 0 116 -42.5t46 -105.5q0 -69 -65.5 -120.5t-160.5 -51.5q-96 0 -186 39z" />
<glyph unicode="&#xb9;" horiz-adv-x="475" d="M72 1227l254 135v-750h-111v586l-117 -57z" />
<glyph unicode="&#xba;" horiz-adv-x="770" d="M100 1051q0 126 77.5 211.5t205.5 85.5q132 0 209.5 -89t77.5 -215q0 -120 -75 -204t-210 -84q-138 0 -211.5 86.5t-73.5 208.5zM205 1053q0 -94 46 -153.5t134 -59.5q91 0 134.5 55t43.5 149q0 93 -46.5 153t-137.5 60q-174 0 -174 -204z" />
<glyph unicode="&#xbb;" horiz-adv-x="952" d="M109 125l294 362v11l-294 362h161l275 -362v-11l-273 -362h-163zM440 125l295 362v11l-295 362h162l275 -362v-11l-273 -362h-164z" />
<glyph unicode="&#xbc;" horiz-adv-x="1359" d="M98 1227l254 135v-750h-110v586l-117 -57zM106 37l969 1339h154l-969 -1339h-154zM776 211v86l301 451h99v-451h73v-86h-73v-211h-93v211h-307zM881 297h202v332z" />
<glyph unicode="&#xbd;" horiz-adv-x="1406" d="M96 1227l254 135v-750h-110v586l-117 -57zM111 37l968 1339h154l-969 -1339h-153zM836 0v86q39 50 93.5 104t96 93t80.5 81.5t60.5 88t21.5 94.5q0 57 -25.5 88t-97.5 31q-52 0 -106 -31t-91 -78l-22 90q112 101 221 101q105 0 164 -54.5t59 -144.5q0 -52 -20 -99.5 t-59 -92t-78.5 -82.5t-96.5 -91.5t-96 -97.5h358v-86h-462z" />
<glyph unicode="&#xbe;" horiz-adv-x="1460" d="M92 690l25 82q35 -29 54.5 -42.5t52 -24.5t71.5 -11q98 0 144 39.5t46 118.5q0 66 -42.5 99.5t-149.5 33.5h-25v70h31q73 0 110 32.5t37 92.5q0 49 -25 74.5t-93 25.5q-91 0 -164 -59l-23 79q97 62 178 62q109 0 169.5 -50t60.5 -143q0 -42 -33 -80t-84 -63 q156 -47 156 -184q0 -101 -72.5 -165.5t-216.5 -64.5q-66 0 -111 18.5t-96 59.5zM201 37l968 1339h154l-969 -1339h-153zM879 211v86l301 451h98v-451h74v-86h-74v-211h-92v211h-307zM983 297h203v332z" />
<glyph unicode="&#xbf;" horiz-adv-x="837" d="M104 -123q0 68 30.5 137t74.5 132.5t87.5 132.5t74.5 163.5t32 198.5h132q0 -97 -21 -182.5t-52.5 -144t-68 -117t-68 -104.5t-52.5 -103t-21 -115q0 -86 54.5 -141.5t156.5 -55.5q66 0 140.5 30t117.5 73l37 -135q-57 -44 -139.5 -72.5t-157.5 -28.5q-163 0 -260 91.5 t-97 240.5zM367 877q0 38 30 67t68 29t66 -29t28 -67q0 -40 -28 -68.5t-66 -28.5q-39 0 -68.5 29t-29.5 68z" />
<glyph unicode="&#xc0;" d="M16 0l541 1352h186l594 -1352h-174l-198 455h-605l-180 -455h-164zM418 598h483l-254 582zM444 1667q0 30 19 49.5t53 20.5l371 -205l4 -14l-10 -41l-17 -7l-411 158q-9 21 -9 39z" />
<glyph unicode="&#xc1;" d="M16 0l541 1352h186l594 -1352h-174l-198 455h-605l-180 -455h-164zM418 598h483l-254 582zM444 1518l7 14l368 205q34 -1 53 -20.5t19 -49.5q0 -25 -6 -39l-414 -158l-14 7z" />
<glyph unicode="&#xc2;" d="M16 0l541 1352h186l594 -1352h-174l-198 455h-605l-180 -455h-164zM418 598h483l-254 582zM434 1507l6 15l226 202h16l225 -202l6 -15l-12 -41l-14 -6l-213 127l-213 -127l-15 6z" />
<glyph unicode="&#xc3;" d="M16 0l541 1352h186l594 -1352h-174l-198 455h-605l-180 -455h-164zM350 1540q23 69 65.5 112.5t121.5 43.5q73 0 159 -14.5t133 -14.5q94 0 134 53l24 -16q-14 -65 -58.5 -111.5t-121.5 -46.5q-57 0 -167.5 14.5t-150.5 14.5q-47 0 -68 -11t-44 -40zM418 598h483 l-254 582z" />
<glyph unicode="&#xc4;" d="M16 0l541 1352h186l594 -1352h-174l-198 455h-605l-180 -455h-164zM418 598h483l-254 582zM424 1626q0 37 24.5 64.5t59.5 27.5q34 0 60 -27.5t26 -64.5q0 -38 -26 -64t-60 -26q-35 0 -59.5 26t-24.5 64zM745 1626q0 37 24.5 64.5t59.5 27.5q33 0 58.5 -28t25.5 -64 q0 -37 -25.5 -63.5t-58.5 -26.5q-35 0 -59.5 26t-24.5 64z" />
<glyph unicode="&#xc5;" d="M16 0l529 1321q-34 19 -54 52t-20 71q0 65 50 111.5t128 46.5q77 0 126.5 -48.5t49.5 -113.5q0 -77 -69 -119l581 -1321h-174l-198 455h-605l-180 -455h-164zM418 598h483l-254 582zM551 1446q0 -42 29.5 -74.5t70.5 -32.5q39 0 65.5 30.5t26.5 70.5q0 42 -27.5 71 t-68.5 29q-43 0 -69.5 -26.5t-26.5 -67.5z" />
<glyph unicode="&#xc6;" horiz-adv-x="1562" d="M-16 0l721 1352h725v-144h-486v-420h348v-143h-348v-502h526v-143h-679v455h-400l-239 -455h-168zM467 598h324v606z" />
<glyph unicode="&#xc7;" horiz-adv-x="1314" d="M117 662q0 147 43.5 273t126.5 222t213 150.5t293 54.5q109 0 220 -24t191 -64l-43 -148q-152 101 -381 101q-134 0 -230.5 -39t-153.5 -113t-83 -172t-26 -225q0 -280 123 -423.5t366 -143.5q124 0 233.5 35.5t178.5 91.5l41 -138q-198 -120 -436 -125l-50 -79 q33 8 68 8q71 0 116.5 -42t45.5 -106q0 -69 -64 -120.5t-159 -51.5q-101 0 -187 39l-2 12l27 48h14q69 -25 141 -25q109 0 109 82q0 94 -104 94q-47 0 -101 -14l-16 22l88 135q-150 8 -267 66.5t-189 152.5t-109 212.5t-37 253.5z" />
<glyph unicode="&#xc8;" horiz-adv-x="1079" d="M203 0v1352h741v-144h-588v-420h451v-143h-451v-502h629v-143h-782zM344 1667q0 30 19 49.5t53 20.5l370 -205l7 -14l-13 -41l-16 -7l-412 158q-8 19 -8 39z" />
<glyph unicode="&#xc9;" horiz-adv-x="1079" d="M203 0v1352h741v-144h-588v-420h451v-143h-451v-502h629v-143h-782zM365 1518l6 14l370 205q33 -1 52.5 -20.5t19.5 -49.5q0 -20 -8 -39l-414 -158l-14 7z" />
<glyph unicode="&#xca;" horiz-adv-x="1079" d="M203 0v1352h741v-144h-588v-420h451v-143h-451v-502h629v-143h-782zM348 1507l6 15l226 202h16l225 -202l6 -15l-12 -41l-14 -6l-213 127l-213 -127l-15 6z" />
<glyph unicode="&#xcb;" horiz-adv-x="1079" d="M203 0v1352h741v-144h-588v-420h451v-143h-451v-502h629v-143h-782zM324 1626q0 37 24.5 64.5t59.5 27.5q34 0 60 -27.5t26 -64.5q0 -38 -26 -64t-60 -26q-35 0 -59.5 26t-24.5 64zM645 1626q0 37 24.5 64.5t59.5 27.5q34 0 60 -27.5t26 -64.5q0 -38 -26 -64t-60 -26 q-35 0 -59.5 26t-24.5 64z" />
<glyph unicode="&#xcc;" horiz-adv-x="559" d="M31 1667q0 30 19 49.5t52 20.5l371 -205l6 -14l-12 -41l-14 -7l-414 158q-8 19 -8 39zM203 0v1352h153v-1352h-153z" />
<glyph unicode="&#xcd;" horiz-adv-x="559" d="M72 1518l6 14l371 205q34 -1 52.5 -20.5t18.5 -49.5q0 -20 -8 -39l-412 -158l-16 7zM203 0v1352h153v-1352h-153z" />
<glyph unicode="&#xce;" horiz-adv-x="559" d="M37 1507l6 15l225 202h15l227 -202l6 -15l-12 -41l-17 -6l-211 127l-213 -127l-16 6zM203 0v1352h153v-1352h-153z" />
<glyph unicode="&#xcf;" horiz-adv-x="559" d="M39 1626q0 37 24.5 64.5t59.5 27.5q34 0 60 -27.5t26 -64.5q0 -38 -26 -64t-60 -26q-35 0 -59.5 26t-24.5 64zM203 0v1352h153v-1352h-153zM360 1626q0 37 24.5 64.5t59.5 27.5q34 0 60 -27.5t26 -64.5q0 -38 -26 -64t-60 -26q-35 0 -59.5 26t-24.5 64z" />
<glyph unicode="&#xd0;" horiz-adv-x="1445" d="M29 668v90h178v594q328 10 446 10q143 0 263.5 -40.5t205.5 -113.5q104 -94 155.5 -235t51.5 -311q0 -112 -24.5 -213t-77 -188t-128.5 -150.5t-184.5 -99.5t-238.5 -36q-213 0 -469 25v668h-178zM360 123q129 -12 310 -12q243 0 366 143.5t123 423.5q0 127 -26 225 t-83 172t-153.5 113t-230.5 39q-177 0 -306 -6v-463h359v-90h-359v-545z" />
<glyph unicode="&#xd1;" horiz-adv-x="1441" d="M203 0v1352h174l708 -1112v1112h154v-1352h-174l-709 1110v-1110h-153zM375 1540q11 32 24 56.5t34 48.5t53.5 37.5t74.5 13.5q73 0 159.5 -14.5t133.5 -14.5q93 0 133 53l25 -16q-14 -65 -58.5 -111.5t-122.5 -46.5q-57 0 -167 14.5t-150 14.5q-47 0 -68.5 -11.5 t-44.5 -39.5z" />
<glyph unicode="&#xd2;" horiz-adv-x="1548" d="M115 659q0 147 44.5 274.5t126.5 223t208 150.5t280 55q155 0 282 -55.5t208.5 -150.5t125.5 -218.5t44 -263.5q0 -109 -26.5 -211t-82 -191t-134 -155t-189.5 -104t-242 -38q-158 0 -283 55t-203 150t-118.5 217t-40.5 262zM285 680q0 -280 123 -424.5t356 -144.5 q130 0 228 43t157 119.5t88 175.5t29 219q0 259 -124.5 409t-373.5 150q-128 0 -222.5 -39.5t-150.5 -113.5t-83 -172t-27 -222zM492 1667q0 30 18.5 49.5t52.5 20.5l369 -205l6 -14l-10 -41l-17 -7l-411 158q-8 19 -8 39z" />
<glyph unicode="&#xd3;" horiz-adv-x="1548" d="M115 659q0 147 44.5 274.5t126.5 223t208 150.5t280 55q155 0 282 -55.5t208.5 -150.5t125.5 -218.5t44 -263.5q0 -109 -26.5 -211t-82 -191t-134 -155t-189.5 -104t-242 -38q-158 0 -283 55t-203 150t-118.5 217t-40.5 262zM285 680q0 -280 123 -424.5t356 -144.5 q130 0 228 43t157 119.5t88 175.5t29 219q0 259 -124.5 409t-373.5 150q-128 0 -222.5 -39.5t-150.5 -113.5t-83 -172t-27 -222zM629 1518l6 14l369 205q34 -1 52.5 -20.5t18.5 -49.5q0 -18 -6 -39l-414 -158l-16 7z" />
<glyph unicode="&#xd4;" horiz-adv-x="1548" d="M115 659q0 147 44.5 274.5t126.5 223t208 150.5t280 55q155 0 282 -55.5t208.5 -150.5t125.5 -218.5t44 -263.5q0 -109 -26.5 -211t-82 -191t-134 -155t-189.5 -104t-242 -38q-158 0 -283 55t-203 150t-118.5 217t-40.5 262zM285 680q0 -280 123 -424.5t356 -144.5 q130 0 228 43t157 119.5t88 175.5t29 219q0 259 -124.5 409t-373.5 150q-128 0 -222.5 -39.5t-150.5 -113.5t-83 -172t-27 -222zM555 1507l6 15l225 202h17l225 -202l6 -15l-12 -41l-14 -6l-213 127l-213 -127l-15 6z" />
<glyph unicode="&#xd5;" horiz-adv-x="1548" d="M115 659q0 147 44.5 274.5t126.5 223t208 150.5t280 55q155 0 282 -55.5t208.5 -150.5t125.5 -218.5t44 -263.5q0 -109 -26.5 -211t-82 -191t-134 -155t-189.5 -104t-242 -38q-158 0 -283 55t-203 150t-118.5 217t-40.5 262zM285 680q0 -280 123 -424.5t356 -144.5 q130 0 228 43t157 119.5t88 175.5t29 219q0 259 -124.5 409t-373.5 150q-128 0 -222.5 -39.5t-150.5 -113.5t-83 -172t-27 -222zM459 1540q11 32 24 56.5t34 48.5t53.5 37.5t74.5 13.5q73 0 159.5 -14.5t133.5 -14.5q93 0 133 53l25 -16q-14 -65 -58.5 -111.5t-122.5 -46.5 q-57 0 -167 14.5t-150 14.5q-47 0 -68.5 -11.5t-44.5 -39.5z" />
<glyph unicode="&#xd6;" horiz-adv-x="1548" d="M115 659q0 147 44.5 274.5t126.5 223t208 150.5t280 55q155 0 282 -55.5t208.5 -150.5t125.5 -218.5t44 -263.5q0 -109 -26.5 -211t-82 -191t-134 -155t-189.5 -104t-242 -38q-158 0 -283 55t-203 150t-118.5 217t-40.5 262zM285 680q0 -280 123 -424.5t356 -144.5 q130 0 228 43t157 119.5t88 175.5t29 219q0 259 -124.5 409t-373.5 150q-128 0 -222.5 -39.5t-150.5 -113.5t-83 -172t-27 -222zM530 1626q0 37 24.5 64.5t59.5 27.5q34 0 60 -27.5t26 -64.5q0 -38 -26 -64t-60 -26q-35 0 -59.5 26t-24.5 64zM852 1626q0 37 24.5 64.5 t59.5 27.5q34 0 60 -27.5t26 -64.5q0 -38 -26 -64t-60 -26q-35 0 -59.5 26t-24.5 64z" />
<glyph unicode="&#xd7;" horiz-adv-x="942" d="M147 242l246 247l-246 246l76 76l246 -246l250 248l76 -76l-250 -248l250 -249l-76 -76l-250 250l-246 -248z" />
<glyph unicode="&#xd8;" horiz-adv-x="1550" d="M78 -25l186 220q-147 185 -147 464q0 147 44.5 274.5t126.5 223t208 150.5t280 55q220 0 385 -113l170 199l105 -80l-176 -207q86 -95 131 -221t45 -266q0 -109 -26.5 -211t-82 -191t-134 -155t-189.5 -104t-242 -38q-244 0 -404 125l-182 -213zM287 680q0 -226 80 -365 l704 828q-124 84 -301 84q-128 0 -222.5 -39.5t-150.5 -113.5t-83 -172t-27 -222zM453 211q115 -100 313 -100q130 0 228 43t157 119.5t88 175.5t29 219q0 240 -103 381z" />
<glyph unicode="&#xd9;" horiz-adv-x="1404" d="M186 455v897h154v-828q0 -413 367 -413q368 0 368 413v828h144v-897q0 -102 -31.5 -188t-93.5 -151.5t-161 -102t-226 -36.5q-139 0 -242 36.5t-163 102.5t-88 150.5t-28 188.5zM451 1667q0 30 18.5 49.5t52.5 20.5l371 -205l4 -14l-10 -41l-17 -7l-411 158q-8 19 -8 39z " />
<glyph unicode="&#xda;" horiz-adv-x="1404" d="M186 455v897h154v-828q0 -413 367 -413q368 0 368 413v828h144v-897q0 -102 -31.5 -188t-93.5 -151.5t-161 -102t-226 -36.5q-139 0 -242 36.5t-163 102.5t-88 150.5t-28 188.5zM508 1518l6 14l371 205q34 -1 52.5 -20.5t18.5 -49.5q0 -20 -8 -39l-411 -158l-17 7z" />
<glyph unicode="&#xdb;" horiz-adv-x="1404" d="M186 455v897h154v-828q0 -413 367 -413q368 0 368 413v828h144v-897q0 -102 -31.5 -188t-93.5 -151.5t-161 -102t-226 -36.5q-139 0 -242 36.5t-163 102.5t-88 150.5t-28 188.5zM457 1507l4 15l227 202h14l228 -202l4 -15l-10 -41l-17 -6l-211 127l-213 -127l-16 6z" />
<glyph unicode="&#xdc;" horiz-adv-x="1404" d="M186 455v897h154v-828q0 -413 367 -413q368 0 368 413v828h144v-897q0 -102 -31.5 -188t-93.5 -151.5t-161 -102t-226 -36.5q-139 0 -242 36.5t-163 102.5t-88 150.5t-28 188.5zM481 1626q0 37 24.5 64.5t59.5 27.5q34 0 60 -27.5t26 -64.5q0 -38 -26 -64t-60 -26 q-35 0 -59.5 26t-24.5 64zM803 1626q0 37 24.5 64.5t59.5 27.5q34 0 60 -27.5t26 -64.5q0 -38 -26 -64t-60 -26q-35 0 -59.5 26t-24.5 64z" />
<glyph unicode="&#xdd;" horiz-adv-x="1161" d="M-20 1352h182l428 -650l414 650h178l-523 -797v-555h-153v547zM442 1518l7 14l368 205q34 -1 53 -20.5t19 -49.5q0 -18 -6 -39l-414 -158l-16 7z" />
<glyph unicode="&#xde;" horiz-adv-x="1050" d="M203 0v1352h143v-189q106 4 150 4q224 0 352.5 -106.5t128.5 -302.5q0 -86 -26.5 -157t-81 -127.5t-147 -88t-216.5 -31.5q-81 0 -160 6v-360h-143zM346 498q77 -9 152 -9q158 0 233.5 69t75.5 212q0 130 -70 196t-237 66q-52 0 -154 -4v-530z" />
<glyph unicode="&#xdf;" horiz-adv-x="1118" d="M162 0v995q0 237 97 374.5t282 137.5q146 0 238.5 -82t92.5 -194q0 -62 -32.5 -127.5t-71.5 -111.5t-71.5 -99.5t-32.5 -93.5q0 -34 21 -64.5t55 -56t75 -52.5t82.5 -59.5t75.5 -70.5t55 -93t21 -120q0 -79 -31 -141.5t-79.5 -97t-99.5 -52t-100 -17.5q-120 0 -219 91 l41 145q30 -60 83 -94.5t110 -34.5q63 0 103 46t40 132q0 59 -20.5 106t-53 79t-71.5 59.5t-78.5 54t-72 56t-53 72.5t-20.5 97q0 52 19.5 102.5t48 90t56.5 77.5t47.5 81.5t19.5 85.5q0 69 -49 115t-138 46q-71 0 -118.5 -31t-70 -90t-30.5 -120t-8 -146v-995h-143z" />
<glyph unicode="&#xe0;" horiz-adv-x="1021" d="M84 252q0 65 21 117.5t55 88t82.5 62t96.5 41t105.5 23.5t101.5 11.5t91 2.5h92v25q0 73 -21 115.5t-63 72.5q-35 23 -75 32t-105 9q-142 0 -279 -82l-32 123q139 80 327 80q167 0 262 -60q129 -81 129 -272v-641h-112l-17 168h-8q-51 -79 -159.5 -136t-221.5 -57 q-129 0 -199.5 77t-70.5 200zM217 1321q0 30 19 50.5t53 21.5l368 -207l7 -15l-11 -41l-16 -6l-414 158q-6 21 -6 39zM236 260q0 -78 43 -121t118 -43q88 0 182 55.5t150 151.5v191h-18q-54 0 -96.5 -1.5t-94 -7.5t-90 -16t-76.5 -27.5t-63 -41.5t-40 -60t-15 -80z" />
<glyph unicode="&#xe1;" horiz-adv-x="1021" d="M84 252q0 65 21 117.5t55 88t82.5 62t96.5 41t105.5 23.5t101.5 11.5t91 2.5h92v25q0 73 -21 115.5t-63 72.5q-35 23 -75 32t-105 9q-142 0 -279 -82l-32 123q139 80 327 80q167 0 262 -60q129 -81 129 -272v-641h-112l-17 168h-8q-51 -79 -159.5 -136t-221.5 -57 q-129 0 -199.5 77t-70.5 200zM236 260q0 -78 43 -121t118 -43q88 0 182 55.5t150 151.5v191h-18q-54 0 -96.5 -1.5t-94 -7.5t-90 -16t-76.5 -27.5t-63 -41.5t-40 -60t-15 -80zM369 1171l6 15l368 207q34 -1 54 -21.5t20 -50.5q0 -20 -8 -39l-414 -158l-14 6z" />
<glyph unicode="&#xe2;" horiz-adv-x="1021" d="M84 252q0 65 21 117.5t55 88t82.5 62t96.5 41t105.5 23.5t101.5 11.5t91 2.5h92v25q0 73 -21 115.5t-63 72.5q-35 23 -75 32t-105 9q-142 0 -279 -82l-32 123q139 80 327 80q167 0 262 -60q129 -81 129 -272v-641h-112l-17 168h-8q-51 -79 -159.5 -136t-221.5 -57 q-129 0 -199.5 77t-70.5 200zM236 260q0 -78 43 -121t118 -43q88 0 182 55.5t150 151.5v191h-18q-54 0 -96.5 -1.5t-94 -7.5t-90 -16t-76.5 -27.5t-63 -41.5t-40 -60t-15 -80zM254 1161l6 15l225 202h17l225 -202l6 -15l-12 -39l-14 -6l-213 125l-211 -125l-17 6z" />
<glyph unicode="&#xe3;" horiz-adv-x="1021" d="M84 252q0 65 21 117.5t55 88t82.5 62t96.5 41t105.5 23.5t101.5 11.5t91 2.5h92v25q0 73 -21 115.5t-63 72.5q-35 23 -75 32t-105 9q-142 0 -279 -82l-32 123q139 80 327 80q167 0 262 -60q129 -81 129 -272v-641h-112l-17 168h-8q-51 -79 -159.5 -136t-221.5 -57 q-129 0 -199.5 77t-70.5 200zM184 1194q0 41 54.5 98.5t132.5 57.5q29 0 134 -9.5t171 -9.5q93 0 133 53l25 -16q0 -6 -6 -22.5t-20.5 -40t-34.5 -44.5t-52 -36t-68 -15q-25 0 -153.5 9.5t-175.5 9.5t-68.5 -11.5t-44.5 -39.5zM236 260q0 -78 43 -121t118 -43q88 0 182 55.5 t150 151.5v191h-18q-54 0 -96.5 -1.5t-94 -7.5t-90 -16t-76.5 -27.5t-63 -41.5t-40 -60t-15 -80z" />
<glyph unicode="&#xe4;" horiz-adv-x="1021" d="M84 252q0 65 21 117.5t55 88t82.5 62t96.5 41t105.5 23.5t101.5 11.5t91 2.5h92v25q0 73 -21 115.5t-63 72.5q-35 23 -75 32t-105 9q-142 0 -279 -82l-32 123q139 80 327 80q167 0 262 -60q129 -81 129 -272v-641h-112l-17 168h-8q-51 -79 -159.5 -136t-221.5 -57 q-129 0 -199.5 77t-70.5 200zM236 260q0 -78 43 -121t118 -43q88 0 182 55.5t150 151.5v191h-18q-54 0 -96.5 -1.5t-94 -7.5t-90 -16t-76.5 -27.5t-63 -41.5t-40 -60t-15 -80zM268 1282q0 37 24.5 64.5t59.5 27.5q33 0 58.5 -28t25.5 -64q0 -37 -25.5 -63.5t-58.5 -26.5 q-35 0 -59.5 26t-24.5 64zM590 1282q0 37 24 64.5t58 27.5t60 -27.5t26 -64.5q0 -38 -26 -64t-60 -26t-58 26t-24 64z" />
<glyph unicode="&#xe5;" horiz-adv-x="1021" d="M84 252q0 65 21 117.5t55 88t82.5 62t96.5 41t105.5 23.5t101.5 11.5t91 2.5h92v25q0 73 -21 115.5t-63 72.5q-35 23 -75 32t-105 9q-142 0 -279 -82l-32 123q139 80 327 80q167 0 262 -60q129 -81 129 -272v-641h-112l-17 168h-8q-51 -79 -159.5 -136t-221.5 -57 q-129 0 -199.5 77t-70.5 200zM236 260q0 -78 43 -121t118 -43q88 0 182 55.5t150 151.5v191h-18q-54 0 -96.5 -1.5t-94 -7.5t-90 -16t-76.5 -27.5t-63 -41.5t-40 -60t-15 -80zM354 1249q0 60 46.5 105t121.5 45q76 0 123 -46.5t47 -107.5q0 -58 -45 -100.5t-123 -42.5 q-81 0 -125.5 44.5t-44.5 102.5zM430 1251q0 -38 27 -69t67 -31q39 0 64.5 29t25.5 65q0 39 -26.5 72t-67.5 33q-40 0 -65 -30.5t-25 -68.5z" />
<glyph unicode="&#xe6;" horiz-adv-x="1683" d="M84 252q0 65 21 117.5t55 88t82.5 62t96.5 41t105.5 23.5t101.5 11.5t91 2.5h92v25q0 73 -21 115.5t-63 72.5q-35 23 -75 32t-105 9q-142 0 -279 -82l-32 123q139 80 327 80q167 0 262 -60q63 -44 84 -102h9q61 72 158 117t210 45q180 0 278.5 -91t98.5 -257 q0 -89 -18 -123h-691v-37q2 -105 38 -189t113 -138t183 -54q90 0 177 32.5t153 78.5l27 -109q-178 -111 -373 -111q-132 0 -232 54.5t-161 150.5h-9q-77 -106 -192 -155.5t-242 -49.5q-129 0 -199.5 77t-70.5 200zM236 260q0 -78 43 -121t118 -43q88 0 182 55.5t150 151.5 v191h-18q-54 0 -96.5 -1.5t-94 -7.5t-90 -16t-76.5 -27.5t-63 -41.5t-40 -60t-15 -80zM887 610h559q2 12 2 37q0 99 -72.5 155t-177.5 56q-127 0 -205 -67.5t-106 -180.5z" />
<glyph unicode="&#xe7;" horiz-adv-x="1024" d="M100 479q0 101 29 188t86 156.5t153 109.5t220 40q97 0 192 -22.5t152 -59.5l-35 -121q-47 37 -136.5 63.5t-174.5 26.5q-86 0 -152 -30t-105 -82t-58 -116.5t-19 -139.5q0 -170 92.5 -287t255.5 -117q83 0 168 32t141 85l33 -127q-60 -39 -153.5 -69t-192.5 -34l-49 -79 q33 8 67 8q71 0 116.5 -42t45.5 -106q0 -69 -64 -120.5t-159 -51.5q-100 0 -186 39l-2 12l26 48h15q69 -25 141 -25q108 0 108 82q0 94 -104 94q-46 0 -100 -14l-17 22l88 135q-203 17 -312.5 158t-109.5 344z" />
<glyph unicode="&#xe8;" horiz-adv-x="1060" d="M96 471q0 137 55 249.5t167.5 182.5t263.5 70q180 0 278 -91t98 -257q0 -89 -18 -123h-690v-21q0 -108 35 -196t112.5 -144.5t186.5 -56.5q90 0 176 32.5t153 78.5l27 -109q-178 -111 -373 -111q-111 0 -201.5 40t-148.5 109t-89.5 158t-31.5 189zM264 610h559q2 12 2 37 q0 99 -72.5 155t-177.5 56q-127 0 -205 -67.5t-106 -180.5zM283 1321q0 30 18.5 50.5t52.5 21.5l369 -207l6 -15l-10 -41l-17 -6l-413 158q-6 21 -6 39z" />
<glyph unicode="&#xe9;" horiz-adv-x="1060" d="M96 471q0 137 55 249.5t167.5 182.5t263.5 70q180 0 278 -91t98 -257q0 -89 -18 -123h-690v-21q0 -108 35 -196t112.5 -144.5t186.5 -56.5q90 0 176 32.5t153 78.5l27 -109q-178 -111 -373 -111q-111 0 -201.5 40t-148.5 109t-89.5 158t-31.5 189zM264 610h559q2 12 2 37 q0 99 -72.5 155t-177.5 56q-127 0 -205 -67.5t-106 -180.5zM395 1171l6 15l369 207q34 -1 53 -21.5t19 -50.5q0 -25 -6 -39l-414 -158l-14 6z" />
<glyph unicode="&#xea;" horiz-adv-x="1060" d="M96 471q0 137 55 249.5t167.5 182.5t263.5 70q180 0 278 -91t98 -257q0 -89 -18 -123h-690v-21q0 -108 35 -196t112.5 -144.5t186.5 -56.5q90 0 176 32.5t153 78.5l27 -109q-178 -111 -373 -111q-111 0 -201.5 40t-148.5 109t-89.5 158t-31.5 189zM264 610h559q2 12 2 37 q0 99 -72.5 155t-177.5 56q-127 0 -205 -67.5t-106 -180.5zM317 1161l5 15l227 202h14l228 -202l4 -15l-11 -39l-16 -6l-211 125l-213 -125l-16 6z" />
<glyph unicode="&#xeb;" horiz-adv-x="1060" d="M96 471q0 137 55 249.5t167.5 182.5t263.5 70q180 0 278 -91t98 -257q0 -89 -18 -123h-690v-21q0 -108 35 -196t112.5 -144.5t186.5 -56.5q90 0 176 32.5t153 78.5l27 -109q-178 -111 -373 -111q-111 0 -201.5 40t-148.5 109t-89.5 158t-31.5 189zM264 610h559q2 12 2 37 q0 99 -72.5 155t-177.5 56q-127 0 -205 -67.5t-106 -180.5zM305 1282q0 37 24.5 64.5t59.5 27.5q34 0 60 -27.5t26 -64.5q0 -38 -26 -64t-60 -26q-35 0 -59.5 26t-24.5 64zM627 1282q0 37 24.5 64.5t59.5 27.5q34 0 60 -27.5t26 -64.5q0 -38 -26 -64t-60 -26q-35 0 -59.5 26 t-24.5 64z" />
<glyph unicode="&#xec;" horiz-adv-x="466" d="M-68 1321q0 30 19 50.5t53 21.5l371 -207l6 -15l-12 -41l-17 -6l-411 158q-9 21 -9 39zM162 0v942h143v-942h-143z" />
<glyph unicode="&#xed;" horiz-adv-x="466" d="M33 1171l6 15l369 207q34 -1 53.5 -21.5t19.5 -50.5q0 -20 -8 -39l-414 -158l-14 6zM162 0v942h143v-942h-143z" />
<glyph unicode="&#xee;" horiz-adv-x="466" d="M-12 1161l6 15l225 202h17l225 -202l6 -15l-12 -39l-15 -6l-213 125l-211 -125l-16 6zM162 0v942h143v-942h-143z" />
<glyph unicode="&#xef;" horiz-adv-x="466" d="M-14 1282q0 37 24.5 64.5t59.5 27.5q34 0 60 -27.5t26 -64.5q0 -38 -26 -64t-60 -26q-35 0 -59.5 26t-24.5 64zM162 0v942h143v-942h-143zM307 1282q0 37 24.5 64.5t59.5 27.5q34 0 60 -27.5t26 -64.5q0 -38 -26 -64t-60 -26q-35 0 -59.5 26t-24.5 64z" />
<glyph unicode="&#xf0;" horiz-adv-x="1185" d="M98 475q0 102 29 191t85 158t146 109t205 40q123 0 207.5 -36t128.5 -126l6 2q-14 108 -58 217.5t-99 190.5l-213 -95l-46 78l209 92q-28 36 -76 72t-100 57l70 99q147 -67 235 -178l201 79l47 -82l-192 -77q178 -269 178 -691q0 -98 -15.5 -183.5t-52.5 -163.5 t-92.5 -133t-140.5 -87.5t-193 -32.5q-96 0 -175 28.5t-133 76t-91 112.5t-53.5 136t-16.5 147zM252 479q0 -104 33 -191.5t106 -145.5t174 -58q84 0 148.5 33t103.5 90t58.5 127t19.5 149q0 185 -88.5 281t-249.5 96q-78 0 -138 -31t-95.5 -85t-53.5 -121t-18 -144z" />
<glyph unicode="&#xf1;" horiz-adv-x="1116" d="M162 0v942h112l17 -176h8q27 89 121.5 148t226.5 59q143 0 231.5 -79t88.5 -253v-641h-144v623q0 119 -52 174t-144 55q-106 0 -196 -66.5t-126 -181.5v-604h-143zM248 1194q11 32 24 56.5t34 48.5t53.5 37.5t74.5 13.5q73 0 159.5 -14.5t133.5 -14.5q93 0 133 53l25 -16 q-14 -65 -58.5 -111.5t-121.5 -46.5q-57 0 -167.5 14.5t-150.5 14.5q-47 0 -68.5 -11.5t-44.5 -39.5z" />
<glyph unicode="&#xf2;" horiz-adv-x="1148" d="M98 475q0 102 29.5 190.5t86 158t149 109.5t210.5 40q97 0 177 -27.5t135 -74.5t93 -112t55.5 -139t17.5 -155q0 -102 -28.5 -189t-84 -155t-147 -107t-209.5 -39q-121 0 -215 40.5t-152 110.5t-87.5 158.5t-29.5 190.5zM250 481q0 -80 20 -150t59 -126t103.5 -88.5 t147.5 -32.5q106 0 180 53.5t106.5 137t32.5 188.5q0 80 -20 149.5t-59.5 125t-104.5 88t-148 32.5q-106 0 -179.5 -53t-105.5 -135.5t-32 -188.5zM279 1321q0 30 19 50.5t52 21.5l371 -207l6 -15l-12 -41l-15 -6l-413 158q-8 19 -8 39z" />
<glyph unicode="&#xf3;" horiz-adv-x="1148" d="M98 475q0 102 29.5 190.5t86 158t149 109.5t210.5 40q97 0 177 -27.5t135 -74.5t93 -112t55.5 -139t17.5 -155q0 -102 -28.5 -189t-84 -155t-147 -107t-209.5 -39q-121 0 -215 40.5t-152 110.5t-87.5 158.5t-29.5 190.5zM250 481q0 -80 20 -150t59 -126t103.5 -88.5 t147.5 -32.5q106 0 180 53.5t106.5 137t32.5 188.5q0 80 -20 149.5t-59.5 125t-104.5 88t-148 32.5q-106 0 -179.5 -53t-105.5 -135.5t-32 -188.5zM410 1171l6 15l368 207q34 -1 54 -21.5t20 -50.5q0 -20 -8 -39l-414 -158l-14 6z" />
<glyph unicode="&#xf4;" horiz-adv-x="1148" d="M98 475q0 102 29.5 190.5t86 158t149 109.5t210.5 40q97 0 177 -27.5t135 -74.5t93 -112t55.5 -139t17.5 -155q0 -102 -28.5 -189t-84 -155t-147 -107t-209.5 -39q-121 0 -215 40.5t-152 110.5t-87.5 158.5t-29.5 190.5zM250 481q0 -80 20 -150t59 -126t103.5 -88.5 t147.5 -32.5q106 0 180 53.5t106.5 137t32.5 188.5q0 80 -20 149.5t-59.5 125t-104.5 88t-148 32.5q-106 0 -179.5 -53t-105.5 -135.5t-32 -188.5zM350 1161l6 15l228 202h14l225 -202l6 -15l-10 -39l-16 -6l-213 125l-211 -125l-17 6z" />
<glyph unicode="&#xf5;" horiz-adv-x="1148" d="M98 475q0 102 29.5 190.5t86 158t149 109.5t210.5 40q97 0 177 -27.5t135 -74.5t93 -112t55.5 -139t17.5 -155q0 -102 -28.5 -189t-84 -155t-147 -107t-209.5 -39q-121 0 -215 40.5t-152 110.5t-87.5 158.5t-29.5 190.5zM238 1194q11 32 24 56.5t34 48.5t53.5 37.5 t74.5 13.5q73 0 159.5 -14.5t133.5 -14.5q93 0 133 53l24 -16q-14 -65 -58.5 -111.5t-121.5 -46.5q-57 0 -167 14.5t-150 14.5q-47 0 -68.5 -11.5t-44.5 -39.5zM250 481q0 -80 20 -150t59 -126t103.5 -88.5t147.5 -32.5q106 0 180 53.5t106.5 137t32.5 188.5q0 80 -20 149.5 t-59.5 125t-104.5 88t-148 32.5q-106 0 -179.5 -53t-105.5 -135.5t-32 -188.5z" />
<glyph unicode="&#xf6;" horiz-adv-x="1148" d="M98 475q0 102 29.5 190.5t86 158t149 109.5t210.5 40q97 0 177 -27.5t135 -74.5t93 -112t55.5 -139t17.5 -155q0 -102 -28.5 -189t-84 -155t-147 -107t-209.5 -39q-121 0 -215 40.5t-152 110.5t-87.5 158.5t-29.5 190.5zM250 481q0 -80 20 -150t59 -126t103.5 -88.5 t147.5 -32.5q106 0 180 53.5t106.5 137t32.5 188.5q0 80 -20 149.5t-59.5 125t-104.5 88t-148 32.5q-106 0 -179.5 -53t-105.5 -135.5t-32 -188.5zM330 1282q0 37 24.5 64.5t59.5 27.5q34 0 60 -27.5t26 -64.5q0 -38 -26 -64t-60 -26q-35 0 -59.5 26t-24.5 64zM651 1282 q0 37 24.5 64.5t59.5 27.5q34 0 60 -27.5t26 -64.5q0 -38 -26 -64t-60 -26q-35 0 -59.5 26t-24.5 64z" />
<glyph unicode="&#xf7;" horiz-adv-x="1165" d="M160 436v107h848v-107h-848zM510 164q0 39 28.5 67.5t67.5 28.5q37 0 66.5 -29t29.5 -67q0 -39 -29.5 -67.5t-66.5 -28.5q-40 0 -68 28t-28 68zM510 813q0 39 28.5 68.5t67.5 29.5q37 0 66.5 -30t29.5 -68t-29.5 -66t-66.5 -28q-40 0 -68 28t-28 66z" />
<glyph unicode="&#xf8;" horiz-adv-x="1153" d="M66 -25l139 164q-105 131 -105 336q0 102 29.5 190.5t86 158t149 109.5t210.5 40q159 0 275 -76l131 156l104 -80l-139 -164q107 -137 107 -344q0 -102 -28.5 -189t-84 -155t-147 -107t-209.5 -39q-168 0 -283 76l-137 -164zM252 481q0 -134 49 -229l463 545 q-84 61 -195 61q-106 0 -179.5 -53t-105.5 -135.5t-32 -188.5zM385 147q79 -63 197 -63q106 0 180 53.5t106.5 137t32.5 188.5q0 134 -53 231z" />
<glyph unicode="&#xf9;" horiz-adv-x="1116" d="M150 301v641h143v-623q0 -223 196 -223q107 0 197 64t125 178v604h143v-942h-112l-17 176h-8q-27 -89 -121 -145t-227 -56q-69 0 -124 16.5t-100 53t-70 101.5t-25 155zM262 1321q0 30 19 50.5t53 21.5l368 -207l7 -15l-11 -41l-16 -6l-412 158q-8 19 -8 39z" />
<glyph unicode="&#xfa;" horiz-adv-x="1116" d="M150 301v641h143v-623q0 -223 196 -223q107 0 197 64t125 178v604h143v-942h-112l-17 176h-8q-27 -89 -121 -145t-227 -56q-69 0 -124 16.5t-100 53t-70 101.5t-25 155zM340 1171l6 15l369 207q34 -1 52.5 -21.5t18.5 -50.5q0 -18 -6 -39l-413 -158l-17 6z" />
<glyph unicode="&#xfb;" horiz-adv-x="1116" d="M150 301v641h143v-623q0 -223 196 -223q107 0 197 64t125 178v604h143v-942h-112l-17 176h-8q-27 -89 -121 -145t-227 -56q-69 0 -124 16.5t-100 53t-70 101.5t-25 155zM307 1161l4 15l228 202h14l227 -202l4 -15l-10 -39l-16 -6l-213 125l-211 -125l-17 6z" />
<glyph unicode="&#xfc;" horiz-adv-x="1116" d="M150 301v641h143v-623q0 -223 196 -223q107 0 197 64t125 178v604h143v-942h-112l-17 176h-8q-27 -89 -121 -145t-227 -56q-69 0 -124 16.5t-100 53t-70 101.5t-25 155zM299 1282q0 37 24.5 64.5t59.5 27.5q34 0 60 -27.5t26 -64.5q0 -38 -26 -64t-60 -26q-35 0 -59.5 26 t-24.5 64zM621 1282q0 37 24.5 64.5t59.5 27.5q34 0 60 -27.5t26 -64.5q0 -38 -26 -64t-60 -26q-35 0 -59.5 26t-24.5 64z" />
<glyph unicode="&#xfd;" horiz-adv-x="1062" d="M6 942h170l375 -784l336 784h162l-433 -950q-83 -182 -137 -266q-159 -250 -358 -250q-25 0 -43 6l-27 135q24 -6 43 -6q90 0 148 41q132 93 235 379zM401 1171l7 15l368 207q34 -1 53 -21.5t19 -50.5q0 -25 -6 -39l-414 -158l-14 6z" />
<glyph unicode="&#xfe;" horiz-adv-x="1181" d="M162 -532v2048h143v-750q50 82 146.5 144.5t216.5 62.5q101 0 181.5 -40.5t130 -109.5t75.5 -157t26 -187q0 -103 -27.5 -193t-80.5 -160t-137.5 -110.5t-190.5 -40.5q-132 0 -222.5 58t-117.5 149v-714h-143zM305 344q36 -113 132 -180.5t206 -67.5q137 0 212 105 t75 268q0 104 -30 188t-99.5 139.5t-169.5 55.5q-99 0 -184 -54t-142 -153v-301z" />
<glyph unicode="&#xff;" horiz-adv-x="1062" d="M6 942h170l375 -784l336 784h162l-433 -950q-83 -182 -137 -266q-159 -250 -358 -250q-25 0 -43 6l-27 135q24 -6 43 -6q90 0 148 41q132 93 235 379zM283 1282q0 37 24.5 64.5t59.5 27.5q34 0 60 -27.5t26 -64.5q0 -38 -26 -64t-60 -26q-35 0 -59.5 26t-24.5 64z M604 1282q0 37 24.5 64.5t59.5 27.5q34 0 60 -27.5t26 -64.5q0 -38 -26 -64t-60 -26q-35 0 -59.5 26t-24.5 64z" />
<glyph unicode="&#x152;" horiz-adv-x="1759" d="M115 659q0 147 44.5 274.5t126.5 223t208 150.5t280 55q70 0 148 -10h702v-144h-549v-420h412v-143h-412v-502h590v-143h-709q-92 -25 -196 -25q-158 0 -283 55t-203 150t-118.5 217t-40.5 262zM285 680q0 -280 123 -424.5t356 -144.5q88 0 158 18v1079q-74 19 -154 19 q-128 0 -222.5 -39.5t-150.5 -113.5t-83 -172t-27 -222z" />
<glyph unicode="&#x153;" horiz-adv-x="1871" d="M98 473q0 102 29.5 190.5t86 158t149 109.5t210.5 40q278 0 404 -219q61 102 167.5 160.5t248.5 58.5q180 0 278 -91t98 -257q0 -89 -18 -123h-690v-21q0 -108 35 -196t112.5 -144.5t186.5 -56.5q90 0 176 32.5t153 78.5l27 -109q-178 -111 -373 -111q-134 0 -237 56 t-162 153q-120 -209 -397 -209q-121 0 -215 40.5t-152 110.5t-87.5 158.5t-29.5 190.5zM250 479q0 -80 20 -150t59 -126t103.5 -88.5t147.5 -32.5q106 0 180 53.5t106.5 137t32.5 188.5q0 80 -20 149.5t-59.5 125t-104.5 88t-148 32.5q-106 0 -179.5 -53t-105.5 -135.5 t-32 -188.5zM1075 608h559q2 12 2 37q0 99 -72.5 155t-177.5 56q-127 0 -205 -67.5t-106 -180.5z" />
<glyph unicode="&#x178;" horiz-adv-x="1161" d="M-20 1352h182l428 -650l414 650h178l-523 -797v-555h-153v547zM344 1626q0 37 24.5 64.5t59.5 27.5q33 0 58.5 -28t25.5 -64q0 -37 -25.5 -63.5t-58.5 -26.5q-35 0 -59.5 26t-24.5 64zM666 1626q0 37 24 64.5t58 27.5t60 -27.5t26 -64.5q0 -38 -26 -64t-60 -26t-58 26 t-24 64z" />
<glyph unicode="&#x2c6;" horiz-adv-x="479" d="M0 1161l6 15l225 202h17l225 -202l6 -15l-12 -39l-14 -6l-213 125l-213 -125l-15 6z" />
<glyph unicode="&#x2dc;" horiz-adv-x="636" d="M0 1194q11 32 24 56.5t34 48.5t53.5 37.5t74.5 13.5q73 0 159.5 -14.5t133.5 -14.5q93 0 133 53l25 -16q-14 -65 -58.5 -111.5t-121.5 -46.5q-57 0 -167.5 14.5t-150.5 14.5q-47 0 -68 -11t-44 -40z" />
<glyph unicode="&#x2000;" horiz-adv-x="868" />
<glyph unicode="&#x2001;" horiz-adv-x="1737" />
<glyph unicode="&#x2002;" horiz-adv-x="868" />
<glyph unicode="&#x2003;" horiz-adv-x="1737" />
<glyph unicode="&#x2004;" horiz-adv-x="579" />
<glyph unicode="&#x2005;" horiz-adv-x="434" />
<glyph unicode="&#x2006;" horiz-adv-x="289" />
<glyph unicode="&#x2007;" horiz-adv-x="289" />
<glyph unicode="&#x2008;" horiz-adv-x="217" />
<glyph unicode="&#x2009;" horiz-adv-x="347" />
<glyph unicode="&#x200a;" horiz-adv-x="96" />
<glyph unicode="&#x2010;" horiz-adv-x="966" d="M137 436v107h692v-107h-692z" />
<glyph unicode="&#x2011;" horiz-adv-x="966" d="M137 436v107h692v-107h-692z" />
<glyph unicode="&#x2012;" horiz-adv-x="966" d="M137 436v107h692v-107h-692z" />
<glyph unicode="&#x2013;" horiz-adv-x="1122" d="M137 436v107h848v-107h-848z" />
<glyph unicode="&#x2014;" horiz-adv-x="1589" d="M137 436v107h1315v-107h-1315z" />
<glyph unicode="&#x2018;" horiz-adv-x="374" d="M74 1329v174h162v-153h-62l90 -146l-31 -28z" />
<glyph unicode="&#x2019;" horiz-adv-x="374" d="M111 1204l90 146h-62v153h162v-174l-160 -153z" />
<glyph unicode="&#x201a;" horiz-adv-x="448" d="M117 -145l90 145h-62v154h162v-174l-160 -154z" />
<glyph unicode="&#x201c;" horiz-adv-x="681" d="M74 1329v174h162v-153h-62l90 -146l-31 -28zM381 1329v174h162v-153h-62l90 -146l-30 -28z" />
<glyph unicode="&#x201d;" horiz-adv-x="706" d="M90 1495l31 29l160 -154v-174h-162v154h61zM397 1495l31 29l160 -154v-174h-162v154h61z" />
<glyph unicode="&#x201e;" horiz-adv-x="778" d="M117 -145l90 145h-62v154h162v-174l-160 -154zM446 -145l91 145h-62v154h162v-174l-160 -154z" />
<glyph unicode="&#x2022;" horiz-adv-x="538" d="M131 498q0 56 40.5 98.5t98.5 42.5q54 0 97 -43t43 -98q0 -57 -42.5 -97.5t-97.5 -40.5q-59 0 -99 40t-40 98z" />
<glyph unicode="&#x2026;" horiz-adv-x="1214" d="M125 72q0 39 27.5 68.5t66.5 29.5q38 0 68 -30t30 -68t-29.5 -66.5t-68.5 -28.5t-66.5 28t-27.5 67zM512 72q0 39 28 68.5t66 29.5t68.5 -30t30.5 -68t-30 -66.5t-69 -28.5q-38 0 -66 28.5t-28 66.5zM899 72q0 39 28 68.5t66 29.5t68.5 -30t30.5 -68t-30 -66.5t-69 -28.5 q-38 0 -66 28.5t-28 66.5z" />
<glyph unicode="&#x202f;" horiz-adv-x="347" />
<glyph unicode="&#x2039;" horiz-adv-x="620" d="M76 487v11l274 362h162l-295 -362v-11l295 -362h-164z" />
<glyph unicode="&#x203a;" horiz-adv-x="620" d="M109 125l294 362v11l-294 362h161l275 -362v-11l-273 -362h-163z" />
<glyph unicode="&#x205f;" horiz-adv-x="434" />
<glyph unicode="&#x20ac;" horiz-adv-x="1273" d="M84 522v107h156v33q0 50 2 75h-158v107h172q20 114 65 207.5t113 163.5t163 108.5t208 38.5q92 0 188 -24t162 -64l-43 -148q-131 101 -319 101q-322 0 -373 -383h522v-107h-532v-108h532v-107h-524q26 -204 119.5 -307.5t250.5 -103.5q106 0 198.5 35t152.5 92l41 -138 q-182 -125 -398 -125q-118 0 -213.5 42t-160.5 117t-105 172.5t-55 215.5h-164z" />
<glyph unicode="&#x2122;" horiz-adv-x="1421" d="M135 1257v80h440v-80h-172v-501h-96v501h-172zM651 756v581h99l200 -495l199 495h96v-581h-80v428l-172 -428h-92l-172 430v-430h-78z" />
<glyph unicode="&#xe000;" horiz-adv-x="942" d="M0 0v942h942v-942h-942z" />
</font>
</defs>
</svg>
